<?xml version="1.0" encoding="utf-8"?>
<!-- Generator: Adobe Illustrator 17.1.0, SVG Export Plug-In . SVG Version: 6.00 Build 0)  -->
<!DOCTYPE svg PUBLIC "-//W3C//DTD SVG 1.1//EN" "http://www.w3.org/Graphics/SVG/1.1/DTD/svg11.dtd">
<svg version="1.1" id="Layer_1" xmlns="http://www.w3.org/2000/svg" xmlns:xlink="http://www.w3.org/1999/xlink" x="0px" y="0px"
	 viewBox="0 0 1127.6 664.6" style="enable-background:new 0 0 1127.6 664.6;" xml:space="preserve">
<style type="text/css">
	.st0{filter:url(#Adobe_OpacityMaskFilter);}
	.st1{fill:url(#SVGID_2_);stroke:#000000;stroke-miterlimit:10;}
	.st2{fill:url(#SVGID_3_);stroke:#000000;stroke-width:1.2399;stroke-miterlimit:10;}
	.st3{fill:url(#SVGID_4_);stroke:#000000;stroke-width:1.0853;stroke-miterlimit:10;}
	.st4{mask:url(#SVGID_1_);}
	.st5{clip-path:url(#SVGID_6_);fill:#FFFFFF;stroke:#E6E7E8;stroke-width:10;stroke-miterlimit:10;}
	.st6{fill:#F9D3BD;}
	.st7{fill:#A7A9AC;}
	.st8{fill:#FFFFFF;}
	.st9{fill:none;stroke:#FFFFFF;stroke-width:11;stroke-miterlimit:10;}
	.st10{fill:#DCDDDE;}
	.st11{fill:#E65525;}
	.st12{fill:#FFEEC0;}
	.st13{fill:#FFCE02;}
	.st14{fill:#FCDAB8;}
	.st15{fill:#F18B21;}
	.st16{fill:#FFFFFF;stroke:#A7A9AC;stroke-width:2;stroke-miterlimit:10;}
	.st17{fill:none;stroke:#E65525;stroke-miterlimit:10;}
	.st18{fill:none;stroke:#FFCE02;stroke-miterlimit:10;}
	.st19{fill:none;stroke:#F18B21;stroke-miterlimit:10;}
	.st20{fill:none;stroke:#A7A9AC;stroke-width:11;stroke-miterlimit:10;}
	.st21{fill:#FFCE02;stroke:#A7A9AC;stroke-width:4.4006;stroke-miterlimit:10;}
	.st22{fill:#FFFFFF;stroke:#D1D3D4;stroke-miterlimit:10;}
	.st23{fill:none;stroke:#FCD9B5;stroke-width:3;stroke-miterlimit:10;}
	.st24{fill:none;stroke:#F18B21;stroke-width:3;stroke-miterlimit:10;}
	.st25{fill:none;stroke:#E65525;stroke-width:3;stroke-miterlimit:10;}
	.st26{fill:none;stroke:#FFFFFF;stroke-miterlimit:10;}
	.st27{fill:none;stroke:#F9D3BD;stroke-width:3.3496;stroke-miterlimit:10;}
	.st28{fill:none;stroke:#A7A9AC;stroke-miterlimit:10;}
	.st29{fill:#D1D3D4;}
	.st30{fill:#414042;}
	.st31{fill:none;stroke:#E65525;stroke-miterlimit:10;stroke-dasharray:2.9786,2.9786;}
	.st32{fill:none;stroke:#E65525;stroke-miterlimit:10;stroke-dasharray:3.009,3.009;}
	.st33{fill:none;stroke:#FFCE02;stroke-miterlimit:10;stroke-dasharray:3.0376,3.0376;}
	.st34{fill:none;stroke:#FFCE02;stroke-miterlimit:10;stroke-dasharray:2.9786,2.9786;}
	.st35{fill:none;stroke:#F18B21;stroke-miterlimit:10;stroke-dasharray:2.9785,2.9785;}
	.st36{fill:none;stroke:#ED1C24;stroke-miterlimit:10;}
	.st37{fill:#808285;}
	.st38{fill:none;stroke:#A7A9AC;stroke-width:0.5;stroke-miterlimit:10;}
</style>
<defs>
	<filter id="Adobe_OpacityMaskFilter" filterUnits="userSpaceOnUse" x="-236.7" y="-132.2" width="1121.9" height="1071.3">
		
			<feColorMatrix  type="matrix" values="-1 0 0 0 1  0 -1 0 0 1  0 0 -1 0 1  0 0 0 1 0" color-interpolation-filters="sRGB" result="source"/>
		<feFlood  style="flood-color:white;flood-opacity:1" result="back"/>
		<feBlend  in="source" in2="back" mode="normal"/>
	</filter>
</defs>
<mask maskUnits="userSpaceOnUse" x="-236.7" y="-132.2" width="1121.9" height="1071.3" id="SVGID_1_">
	<g class="st0">
		<linearGradient id="SVGID_2_" gradientUnits="userSpaceOnUse" x1="450.4634" y1="187.6028" x2="450.4634" y2="-2.022443e-08">
			<stop  offset="0" style="stop-color:#000000"/>
			<stop  offset="0.6976" style="stop-color:#FFFFFF"/>
		</linearGradient>
		<rect y="0" class="st1" width="900.9" height="187.6"/>
		<linearGradient id="SVGID_3_" gradientUnits="userSpaceOnUse" x1="450.4634" y1="728" x2="450.4634" y2="439.5812">
			<stop  offset="7.425861e-02" style="stop-color:#FFFFFF"/>
			<stop  offset="1" style="stop-color:#000000"/>
		</linearGradient>
		<rect y="439.6" class="st2" width="900.9" height="288.4"/>
		
			<linearGradient id="SVGID_4_" gradientUnits="userSpaceOnUse" x1="684.2272" y1="1206.254" x2="684.2272" y2="956.1415" gradientTransform="matrix(4.489659e-11 1 -1 4.489659e-11 1206.254 -282.6728)">
			<stop  offset="6.708387e-02" style="stop-color:#FFFFFF"/>
			<stop  offset="1" style="stop-color:#000000"/>
		</linearGradient>
		<rect x="0" y="3.5" class="st3" width="250.1" height="796"/>
	</g>
</mask>
<g class="st4">
	<defs>
		<rect id="SVGID_5_" x="-77.8" y="-132.2" width="963" height="1071.3"/>
	</defs>
	<clipPath id="SVGID_6_">
		<use xlink:href="#SVGID_5_"  style="overflow:visible;"/>
	</clipPath>
	<circle class="st5" cx="175" cy="468.9" r="406.7"/>
	<circle class="st5" cx="564" cy="121.9" r="157.9"/>
	<circle class="st5" cx="112.5" cy="74.4" r="188.3"/>
</g>
<rect x="210.6" y="339.5" class="st6" width="40.5" height="112.1"/>
<rect x="664.9" y="344.1" class="st7" width="221.1" height="242.6"/>
<g>
	<rect x="787.6" y="382.6" class="st8" width="85.9" height="51.4"/>
	<path class="st9" d="M840.4,434.1v5.3c0,4.4,3.7,8.2,8,8.2h6.5l7.9,0c4.3,0,8,3.8,8,8.2c0,4.4-3.7,8.2-8,8.2l-12.9-0.2
		c-4.3,0-8,3.8-8,8.2c0,4.4,3.7,8.2,8,8.2l0.3,0c4.3,0,8,3.8,8,8.2v7.1"/>
	<rect x="831.2" y="433.2" class="st8" width="18.4" height="4.7"/>
	<rect x="849.4" y="492.6" class="st8" width="18.4" height="4.7"/>
</g>
<path class="st10" d="M734.1,564.7c0,5.2-4.2,9.4-9.4,9.4H277.5c-5.2,0-9.4-4.2-9.4-9.4l0,0c0-5.2,4.2-9.4,9.4-9.4h447.2
	C729.9,555.3,734.1,559.5,734.1,564.7L734.1,564.7z"/>
<polygon class="st7" points="864.2,227.5 849,227.5 841.6,346.8 870.5,346.8 "/>
<path class="st7" d="M933.5,312.6c11.5-11.5-2.8-25.9-14.4-14.4l-21.6,21.6c-4,4-4,10.4,0,14.4l0,0c4,4,10.4,4,14.4,0L933.5,312.6z"
	/>
<rect x="210.6" y="376.4" class="st11" width="39.8" height="75"/>
<rect x="263.1" y="339.5" class="st12" width="40.5" height="112.1"/>
<rect x="263.1" y="353.5" class="st13" width="39.8" height="97.9"/>
<rect x="315.6" y="339.5" class="st14" width="40.5" height="112.1"/>
<rect x="315.9" y="395.6" class="st15" width="39.8" height="55.8"/>
<rect x="368.1" y="339.5" class="st12" width="40.5" height="112.1"/>
<rect x="368.7" y="374.4" class="st13" width="39.8" height="77"/>
<path class="st16" d="M1090.5,494.1c14.6,14.6,14.6,38.3,0,52.9c-14.6,14.6-38.3,14.6-52.9,0c-14.6-14.6-14.6-38.3,0-52.9
	C1052.2,479.5,1075.9,479.5,1090.5,494.1z"/>
<line class="st16" x1="1064.4" y1="618.2" x2="1064.4" y2="559.1"/>
<g>
	<line class="st16" x1="1034.3" y1="521.9" x2="1041.9" y2="521.8"/>
	<line class="st16" x1="1042.1" y1="500.4" x2="1047.5" y2="505.7"/>
	<line class="st16" x1="1062.8" y1="490.7" x2="1062.9" y2="498.3"/>
	<line class="st16" x1="1084.2" y1="498.5" x2="1079" y2="503.9"/>
	<line class="st16" x1="1093.9" y1="519.2" x2="1086.3" y2="519.3"/>
	<line class="st16" x1="1086.1" y1="540.6" x2="1080.7" y2="535.4"/>
	<line class="st16" x1="1044" y1="542.5" x2="1049.2" y2="537.1"/>
</g>
<g>
	<line class="st16" x1="1036.7" y1="509.5" x2="1043.7" y2="512.4"/>
	<line class="st16" x1="1052.3" y1="492.9" x2="1055.2" y2="499.8"/>
	<line class="st16" x1="1075.1" y1="492.1" x2="1072.2" y2="499.1"/>
	<line class="st16" x1="1091.8" y1="507.7" x2="1084.8" y2="510.7"/>
	<line class="st16" x1="1076.9" y1="547.2" x2="1074" y2="540.2"/>
	<line class="st16" x1="1037.4" y1="532.3" x2="1044.4" y2="529.4"/>
</g>
<polygon class="st15" points="1091.8,533.2 1093.1,529.2 1063.9,518.9 1062.5,522.8 "/>
<path class="st17" d="M231.4,452.8c0,17.9,76.1,26.1,76.1,45.3"/>
<path class="st18" d="M285.1,455.4c0,17.9,23.4,23.4,23.4,42.7"/>
<path class="st19" d="M336.3,455.4c0,17.9-27.1,19.3-27.1,42.7"/>
<path class="st18" d="M390.2,455.4c0,17.9-80.4,24.8-80.4,42.7"/>
<path class="st17" d="M439.6,455.4c0,17.9-129.8,24.8-129.8,42.7"/>
<rect x="224.1" y="453.4" class="st11" width="15" height="2"/>
<rect x="276.4" y="453.4" class="st13" width="15" height="2"/>
<rect x="328.8" y="453.4" class="st15" width="15" height="2"/>
<rect x="381.9" y="453.4" class="st13" width="15" height="2"/>
<path class="st10" d="M939.2,534.1c4,0,7.3-4.8,7.3-10.6c0-5.9-3.3-10.6-7.3-10.6V534.1z"/>
<path class="st9" d="M814.4,378.9v-6.2c0-6-4.5-10-9.2-10H688.4c-4.3,0-8,3.8-8,8.2c0,4.4,3.7,8.2,8,8.2h6.5l71.8,0
	c4.3,0,8,3.8,8,8.2c0,4.4-3.7,8.2-8,8.2l-78.7-0.2c-4.3,0-8,3.8-8,8.2c0,4.4,3.7,8.2,8,8.2l6.5,0l72.3,0c4.3,0,8,3.8,8,8.2
	c0,4.4-3.7,8.2-8,8.2h-67.2l-11.2,0.1h-0.3c-4.3,0-8,3.8-8,8.2c0,4.4,3.7,8.2,8,8.2h7.1l24.8,0c4.3,0,8,3.8,8,8.2
	c0,4.4-3.7,8.2-8,8.2l-9.9,0c-4.3,0-8,3.8-8,8.2v15.2"/>
<path class="st20" d="M929.2,486.8v-6.6c0-4.4-3.7-8.2-8-8.2l-6,0h-30"/>
<path class="st21" d="M904.8,337.4l-10.5-10.5L860.3,361c-2.9,2.9-8.8,13.5-5.9,16.4l0,0c2.9,2.9,13.5-3,16.4-5.9L904.8,337.4z"/>
<path class="st11" d="M818.7,392c0,2.5-2,4.5-4.5,4.5c-2.5,0-4.5-2-4.5-4.5c0-2.5,4.5-9.3,4.5-9.3S818.7,389.5,818.7,392z"/>
<path class="st13" d="M857.1,392c0,2.5-2,4.5-4.5,4.5c-2.5,0-4.5-2-4.5-4.5c0-2.5,4.5-9.3,4.5-9.3S857.1,389.5,857.1,392z"/>
<g>
	<polygon class="st8" points="308.8,531.1 298.3,531.1 303,524.2 303,506.7 308.8,506.7 	"/>
	<polygon class="st8" points="308.6,531.1 319.1,531.1 314.4,524.2 314.4,506.7 308.6,506.7 	"/>
	<g>
		<path class="st10" d="M315.2,506.8v16.1l13.3,21.1c0,2.3-1.8,4.1-4.1,4.1h-31.6c-2.3,0-4.1-1.8-4.1-4.1l13.3-20.7v-16.5"/>
		<path class="st11" d="M288.8,544.1c0,2.3,1.8,4.1,4.1,4.1h31.6c2.3,0,4.1-1.8,4.1-4.1l-6.7-10.7h-26.2L288.8,544.1z"/>
	</g>
</g>
<g>
	<polygon class="st8" points="548.8,531.1 538.2,531.1 543,524.2 543,506.7 548.8,506.7 	"/>
	<polygon class="st8" points="548.5,531.1 559,531.1 554.3,524.2 554.3,506.7 548.5,506.7 	"/>
	<g>
		<path class="st10" d="M555.2,506.8v16.1l13.3,21.1c0,2.3-1.8,4.1-4.1,4.1h-31.6c-2.3,0-4.1-1.8-4.1-4.1l13.3-20.7v-16.5"/>
		<path class="st11" d="M528.7,544.1c0,2.3,1.8,4.1,4.1,4.1h31.6c2.3,0,4.1-1.8,4.1-4.1l-6.7-10.7h-26.2L528.7,544.1z"/>
	</g>
</g>
<g>
	<polygon class="st8" points="701.7,531.1 691.2,531.1 695.9,524.2 695.9,506.7 701.7,506.7 	"/>
	<polygon class="st8" points="701.4,531.1 711.9,531.1 707.2,524.2 707.2,506.7 701.4,506.7 	"/>
	<g>
		<path class="st10" d="M708.1,506.8v16.1l13.3,21.1c0,2.3-1.8,4.1-4.1,4.1h-31.6c-2.3,0-4.1-1.8-4.1-4.1l13.3-20.7v-16.5"/>
		<path class="st11" d="M681.6,544.1c0,2.3,1.8,4.1,4.1,4.1h31.6c2.3,0,4.1-1.8,4.1-4.1l-6.7-10.7h-26.2L681.6,544.1z"/>
	</g>
</g>
<g>
	<polygon class="st8" points="388.8,531.1 378.3,531.1 383,524.2 383,506.7 388.8,506.7 	"/>
	<polygon class="st8" points="388.5,531.1 399.1,531.1 394.3,524.2 394.3,506.7 388.5,506.7 	"/>
	<g>
		<path class="st10" d="M395.2,506.8v16.1l13.3,21.1c0,2.3-1.8,4.1-4.1,4.1h-31.6c-2.3,0-4.1-1.8-4.1-4.1l13.3-20.7v-16.5"/>
		<path class="st13" d="M368.7,544.1c0,2.3,1.8,4.1,4.1,4.1h31.6c2.3,0,4.1-1.8,4.1-4.1l-6.7-10.7h-26.2L368.7,544.1z"/>
	</g>
</g>
<g>
	<polygon class="st8" points="468.8,531.1 458.3,531.1 463,524.2 463,506.7 468.8,506.7 	"/>
	<polygon class="st8" points="468.5,531.1 479,531.1 474.3,524.2 474.3,506.7 468.5,506.7 	"/>
	<g>
		<path class="st10" d="M475.2,506.8v16.1l13.3,21.1c0,2.3-1.8,4.1-4.1,4.1h-31.6c-2.3,0-4.1-1.8-4.1-4.1l13.3-20.7v-16.5"/>
		<path class="st15" d="M448.7,544.1c0,2.3,1.8,4.1,4.1,4.1h31.6c2.3,0,4.1-1.8,4.1-4.1l-6.7-10.7h-26.2L448.7,544.1z"/>
	</g>
</g>
<g>
	<polygon class="st8" points="628.7,531.1 618.2,531.1 622.9,524.2 622.9,506.7 628.7,506.7 	"/>
	<polygon class="st8" points="628.5,531.1 639,531.1 634.3,524.2 634.3,506.7 628.5,506.7 	"/>
	<g>
		<path class="st10" d="M635.2,506.8v16.1l13.3,21.1c0,2.3-1.8,4.1-4.1,4.1h-31.6c-2.3,0-4.1-1.8-4.1-4.1l13.3-20.7v-16.5"/>
		<path class="st15" d="M608.7,544.1c0,2.3,1.8,4.1,4.1,4.1h31.6c2.3,0,4.1-1.8,4.1-4.1l-6.7-10.7h-26.2L608.7,544.1z"/>
	</g>
</g>
<circle class="st7" cx="1008.3" cy="603.3" r="11.5"/>
<circle class="st7" cx="922.1" cy="603.3" r="11.5"/>
<circle class="st7" cx="896.9" cy="603.3" r="11.5"/>
<path class="st10" d="M936.8,541.8v-5.9h-15v5.9h-58.2c0,0-12.9,1.1-12.9,22c0,20.9,12.9,22.9,12.9,22.9h119.2v-44.9H936.8z"/>
<path class="st7" d="M993.8,603.3h-57.2h-55.9h-3.4h-6l-8.7-3.1l0-8.4h23.6H931h57.8v-36.9l30,2.3c0,0,6.6,16.3,8.9,22.1v15.6v5.6
	c0,1.6-1.3,2.9-2.9,2.9h-2H993.8z"/>
<circle class="st22" cx="765.3" cy="428.6" r="2"/>
<circle class="st22" cx="771.6" cy="426.5" r="2"/>
<circle class="st22" cx="770.2" cy="394.4" r="2"/>
<circle class="st22" cx="721.5" cy="362.6" r="2"/>
<g>
	<path class="st14" d="M848.3,509.5c0,5.8,4.7,10.6,10.6,10.6c5.8,0,10.6-4.7,10.6-10.6c0-2.6-0.9-4.9-2.4-6.7h-16.3
		C849.2,504.6,848.3,507,848.3,509.5z"/>
	<path class="st15" d="M869.4,509.5c0,5.8-4.7,10.6-10.6,10.6c-5.8,0-10.6-4.7-10.6-10.6H869.4z"/>
	<line class="st23" x1="858.8" y1="520.2" x2="858.8" y2="532.1"/>
	<line class="st23" x1="850.9" y1="532" x2="866.8" y2="532"/>
</g>
<rect x="949.5" y="518.6" class="st10" width="3.3" height="9.7"/>
<rect x="945.5" y="521.7" class="st10" width="6.5" height="3.3"/>
<rect x="911.5" y="459.9" class="st7" width="9.7" height="3.3"/>
<rect x="914.7" y="460.7" class="st7" width="3.3" height="6.5"/>
<path class="st15" d="M982.8,586.7H862.5c0,0-11.9-1.1-11.9-24.8c28.7,0,132.1,0,132.1,0V586.7z"/>
<line class="st24" x1="929.5" y1="538.2" x2="929.5" y2="561.8"/>
<line class="st24" x1="929.5" y1="486.8" x2="929.5" y2="533.9"/>
<line class="st25" x1="308.5" y1="498" x2="308.5" y2="534"/>
<path class="st15" d="M919.6,557.8c-1.1-1-1.1-2.7-0.1-3.8c1-1.1,2.7-1.1,3.8-0.1c1.1,1,2.1,5.8,2.1,5.8S920.7,558.8,919.6,557.8z"
	/>
<path class="st15" d="M939.7,557.8c1.1-1,1.1-2.7,0.1-3.8c-1-1.1-2.7-1.1-3.8-0.1s-2.1,5.8-2.1,5.8S938.6,558.8,939.7,557.8z"/>
<circle class="st26" cx="872.4" cy="567.9" r="2"/>
<circle class="st26" cx="880.7" cy="573.8" r="2"/>
<circle class="st26" cx="867.4" cy="575" r="2"/>
<circle class="st26" cx="619.6" cy="541.5" r="1.9"/>
<circle class="st26" cx="691.4" cy="538.1" r="1.9"/>
<circle class="st26" cx="697.3" cy="538.1" r="1.9"/>
<circle class="st26" cx="694.3" cy="543.5" r="1.9"/>
<circle class="st26" cx="299.5" cy="541.5" r="1.9"/>
<circle class="st8" cx="367.5" cy="564.8" r="3.4"/>
<circle class="st8" cx="278.7" cy="564.8" r="3.4"/>
<circle class="st8" cx="456.3" cy="564.8" r="3.4"/>
<circle class="st8" cx="411.9" cy="564.8" r="3.4"/>
<circle class="st8" cx="323.1" cy="564.8" r="3.4"/>
<circle class="st8" cx="500.7" cy="564.8" r="3.4"/>
<circle class="st8" cx="545.1" cy="564.8" r="3.4"/>
<circle class="st8" cx="589.5" cy="564.8" r="3.4"/>
<circle class="st8" cx="633.9" cy="564.8" r="3.4"/>
<circle class="st8" cx="678.3" cy="564.8" r="3.4"/>
<circle class="st8" cx="722.7" cy="564.8" r="3.4"/>
<circle class="st26" cx="475.7" cy="540.3" r="1.9"/>
<circle class="st26" cx="539" cy="540.7" r="1.9"/>
<circle class="st26" cx="324.3" cy="436.7" r="1.9"/>
<circle class="st26" cx="328" cy="431.6" r="1.9"/>
<circle class="st26" cx="328" cy="442.1" r="1.9"/>
<circle class="st26" cx="331.8" cy="436.7" r="1.9"/>
<rect x="419.3" y="339.5" class="st6" width="40.5" height="112.1"/>
<rect x="419.6" y="395.6" class="st11" width="39.8" height="55.8"/>
<rect x="432.4" y="453.4" class="st11" width="15" height="2"/>
<circle class="st26" cx="428" cy="436.7" r="1.9"/>
<circle class="st26" cx="431.7" cy="442.1" r="1.9"/>
<circle class="st26" cx="435.4" cy="436.7" r="1.9"/>
<circle class="st26" cx="271.3" cy="375.5" r="1.9"/>
<circle class="st26" cx="275" cy="358.6" r="1.9"/>
<circle class="st26" cx="275" cy="442.1" r="1.9"/>
<circle class="st26" cx="222" cy="429.5" r="1.9"/>
<circle class="st26" cx="278.8" cy="436.7" r="1.9"/>
<circle class="st26" cx="392.5" cy="442.1" r="1.9"/>
<circle class="st26" cx="396.3" cy="436.7" r="1.9"/>
<circle class="st8" cx="896.9" cy="603.3" r="3.9"/>
<circle class="st8" cx="922.2" cy="603.3" r="3.9"/>
<circle class="st8" cx="1008.2" cy="603.3" r="3.9"/>
<rect x="677.8" y="475.4" class="st8" width="49" height="24.1"/>
<polygon class="st8" points="826.4,460.8 782.8,447.5 739.1,460.8 739.1,573.2 826.4,573.2 "/>
<path class="st7" d="M780.6,573.6h-31.7v-48.8c0-3.5,2.9-6.4,6.4-6.4h18.9c3.5,0,6.4,2.9,6.4,6.4V573.6z"/>
<path class="st7" d="M793.8,518.5c2.3,0,4.2,1.9,4.2,4.2v0.5c0,2.3-1.9,4.2-4.2,4.2h-17.5c-2.3,0-4.2-1.9-4.2-4.2v-0.5
	c0-2.3,1.9-4.2,4.2-4.2H793.8z"/>
<path class="st7" d="M803.6,507.7c1.7-1.6,4.3-1.5,5.9,0.2l0.4,0.4c1.6,1.7,1.5,4.3-0.2,5.9l-12.8,11.9c-1.7,1.6-4.3,1.5-5.9-0.2
	l-0.4-0.4c-1.6-1.7-1.5-4.3,0.2-5.9L803.6,507.7z"/>
<g>
	<g>
		<g>
			<path class="st6" d="M786.4,506.5c4.8,5.2,12.9,5.4,18.1,0.6c5.2-4.8,5.4-12.9,0.6-18.1c-2.1-2.3-4.8-3.6-7.7-3.9L783,498.6
				C783.2,501.4,784.3,504.3,786.4,506.5z"/>
			<path class="st11" d="M786.4,506.5c5.7,5.2,12.9,5.4,18.1,0.6c2.4-2.2,3.7-5.1,4-8.1h-25.3C783.2,499,784,504,786.4,506.5z"/>
			<line class="st27" x1="804.5" y1="507.1" x2="814.4" y2="517.6"/>
			<line class="st27" x1="807.3" y1="524.2" x2="821.3" y2="511"/>
		</g>
	</g>
</g>
<line class="st28" x1="782.7" y1="463.7" x2="782.7" y2="446.2"/>
<circle class="st22" cx="681.2" cy="409.5" r="2"/>
<circle class="st22" cx="687.9" cy="412.8" r="2"/>
<rect x="1039" y="565.8" class="st7" width="17.1" height="32.8"/>
<path class="st16" d="M1047,598.3c0,6,3.1,14,16.6,14"/>
<circle class="st11" cx="1047.7" cy="572.7" r="3.4"/>
<circle class="st29" cx="1047.7" cy="581.6" r="3.4"/>
<circle class="st29" cx="1047.7" cy="590.4" r="3.4"/>
<polygon class="st7" points="724.1,308.2 665,344.2 724.1,344.2 "/>
<polygon class="st7" points="774.2,308.2 715.1,344.2 774.2,344.2 "/>
<polygon class="st7" points="824.3,308.2 765.2,344.2 824.3,344.2 "/>
<rect x="692.9" y="471.9" class="st8" width="18.4" height="4.7"/>
<rect x="805" y="375.2" class="st8" width="18.4" height="4.7"/>
<rect x="839" y="509.7" class="st8" width="4.7" height="18.4"/>
<rect x="920.8" y="482.3" class="st7" width="17.7" height="4.7"/>
<rect x="883.2" y="460.3" class="st7" width="11" height="23.7"/>
<line class="st9" x1="840.1" y1="519.2" x2="823.9" y2="519.2"/>
<rect x="899.1" y="310.2" transform="matrix(0.7071 -0.7071 0.7071 0.7071 31.8233 734.922)" class="st7" width="7.9" height="37.7"/>
<rect x="763.9" y="459.3" class="st7" width="37.7" height="16.7"/>
<rect x="242.3" y="387.7" class="st7" width="186.3" height="25.4"/>
<g>
	<path class="st8" d="M316.7,403.8v-7.1h0.8v7.1H316.7z"/>
	<path class="st8" d="M323,403.8v-3.5c0-0.4-0.1-0.8-0.3-1s-0.5-0.3-0.9-0.3c-0.6,0-1,0.2-1.2,0.5s-0.4,0.8-0.4,1.5v2.8h-0.8v-5.4
		h0.7l0.1,0.7h0c0.2-0.3,0.4-0.5,0.7-0.6c0.3-0.1,0.6-0.2,1-0.2c0.6,0,1.1,0.2,1.5,0.5c0.3,0.3,0.5,0.8,0.5,1.5v3.5H323z"/>
	<path class="st8" d="M329,402.3c0,0.5-0.2,0.9-0.6,1.2s-0.9,0.4-1.6,0.4c-0.7,0-1.3-0.1-1.7-0.3v-0.8c0.3,0.1,0.5,0.2,0.8,0.3
		s0.6,0.1,0.9,0.1c0.4,0,0.7-0.1,1-0.2c0.2-0.1,0.3-0.3,0.3-0.6c0-0.2-0.1-0.4-0.3-0.5c-0.2-0.1-0.5-0.3-1.1-0.5
		c-0.5-0.2-0.9-0.3-1.1-0.5c-0.2-0.1-0.4-0.3-0.5-0.5s-0.2-0.4-0.2-0.6c0-0.4,0.2-0.8,0.5-1c0.4-0.3,0.8-0.4,1.5-0.4
		c0.6,0,1.1,0.1,1.7,0.4l-0.3,0.7c-0.5-0.2-1-0.3-1.5-0.3c-0.4,0-0.7,0.1-0.9,0.2s-0.3,0.3-0.3,0.5c0,0.1,0,0.3,0.1,0.4
		s0.2,0.2,0.4,0.3s0.5,0.2,0.9,0.4c0.6,0.2,1.1,0.5,1.3,0.7S329,402,329,402.3z"/>
	<path class="st8" d="M330.2,397c0-0.2,0-0.3,0.1-0.4c0.1-0.1,0.2-0.1,0.3-0.1c0.1,0,0.2,0,0.3,0.1s0.1,0.2,0.1,0.4s0,0.3-0.1,0.4
		c-0.1,0.1-0.2,0.1-0.3,0.1c-0.1,0-0.3,0-0.3-0.1C330.3,397.3,330.2,397.2,330.2,397z M331.1,403.8h-0.8v-5.4h0.8V403.8z"/>
	<path class="st8" d="M337.2,398.4v0.5l-1,0.1c0.1,0.1,0.2,0.3,0.2,0.4c0.1,0.2,0.1,0.4,0.1,0.6c0,0.5-0.2,0.9-0.5,1.3
		s-0.8,0.5-1.5,0.5c-0.2,0-0.3,0-0.4,0c-0.3,0.2-0.5,0.4-0.5,0.7c0,0.1,0.1,0.3,0.2,0.3c0.1,0.1,0.3,0.1,0.6,0.1h0.9
		c0.6,0,1,0.1,1.3,0.4s0.5,0.6,0.5,1.1c0,0.6-0.2,1-0.7,1.4c-0.5,0.3-1.2,0.5-2.1,0.5c-0.7,0-1.2-0.1-1.6-0.4s-0.6-0.6-0.6-1.1
		c0-0.3,0.1-0.6,0.3-0.8s0.5-0.4,0.9-0.5c-0.1-0.1-0.3-0.2-0.3-0.3s-0.1-0.3-0.1-0.5c0-0.2,0.1-0.4,0.2-0.5s0.3-0.3,0.5-0.4
		c-0.3-0.1-0.5-0.3-0.7-0.6s-0.3-0.6-0.3-0.9c0-0.6,0.2-1,0.5-1.4c0.4-0.3,0.8-0.5,1.5-0.5c0.3,0,0.5,0,0.8,0.1H337.2z M332.9,404.7
		c0,0.3,0.1,0.5,0.4,0.7s0.6,0.2,1,0.2c0.7,0,1.2-0.1,1.5-0.3c0.3-0.2,0.5-0.5,0.5-0.8c0-0.3-0.1-0.5-0.3-0.6
		c-0.2-0.1-0.5-0.2-1-0.2h-1c-0.4,0-0.7,0.1-0.9,0.3S332.9,404.4,332.9,404.7z M333.4,400.1c0,0.4,0.1,0.7,0.3,0.8s0.5,0.3,0.9,0.3
		c0.8,0,1.2-0.4,1.2-1.2c0-0.8-0.4-1.2-1.2-1.2c-0.4,0-0.7,0.1-0.9,0.3S333.4,399.7,333.4,400.1z"/>
	<path class="st8" d="M342,403.8v-3.5c0-0.4-0.1-0.8-0.3-1s-0.5-0.3-0.9-0.3c-0.6,0-1,0.2-1.2,0.5s-0.4,0.8-0.4,1.5v2.8h-0.8v-7.6
		h0.8v2.3c0,0.3,0,0.5,0,0.7h0c0.2-0.3,0.4-0.5,0.7-0.6c0.3-0.1,0.6-0.2,1-0.2c0.7,0,1.1,0.2,1.5,0.5c0.3,0.3,0.5,0.8,0.5,1.5v3.5
		H342z"/>
	<path class="st8" d="M346.2,403.2c0.1,0,0.3,0,0.4,0c0.1,0,0.2,0,0.3-0.1v0.6c-0.1,0-0.2,0.1-0.4,0.1c-0.2,0-0.3,0-0.5,0
		c-1,0-1.6-0.5-1.6-1.6v-3.2h-0.8v-0.4l0.8-0.3l0.3-1.1h0.5v1.2h1.6v0.6h-1.6v3.1c0,0.3,0.1,0.6,0.2,0.7S345.9,403.2,346.2,403.2z"
		/>
	<path class="st8" d="M351.4,402.3c0,0.5-0.2,0.9-0.6,1.2s-0.9,0.4-1.6,0.4c-0.7,0-1.3-0.1-1.7-0.3v-0.8c0.3,0.1,0.5,0.2,0.8,0.3
		s0.6,0.1,0.9,0.1c0.4,0,0.7-0.1,1-0.2c0.2-0.1,0.3-0.3,0.3-0.6c0-0.2-0.1-0.4-0.3-0.5c-0.2-0.1-0.5-0.3-1.1-0.5
		c-0.5-0.2-0.9-0.3-1.1-0.5c-0.2-0.1-0.4-0.3-0.5-0.5s-0.2-0.4-0.2-0.6c0-0.4,0.2-0.8,0.5-1c0.4-0.3,0.8-0.4,1.5-0.4
		c0.6,0,1.1,0.1,1.7,0.4l-0.3,0.7c-0.5-0.2-1-0.3-1.5-0.3c-0.4,0-0.7,0.1-0.9,0.2s-0.3,0.3-0.3,0.5c0,0.1,0,0.3,0.1,0.4
		s0.2,0.2,0.4,0.3s0.5,0.2,0.9,0.4c0.6,0.2,1.1,0.5,1.3,0.7S351.4,402,351.4,402.3z"/>
</g>
<g>
	<path d="M158.9,282.9v2.9h-1.2v-7.1h2c0.9,0,1.6,0.2,2,0.5s0.7,0.9,0.7,1.6c0,0.9-0.5,1.5-1.4,1.9l2,3.2h-1.3l-1.7-2.9H158.9z
		 M158.9,281.9h0.8c0.5,0,0.9-0.1,1.2-0.3s0.4-0.5,0.4-0.9c0-0.4-0.1-0.7-0.4-0.9s-0.7-0.3-1.2-0.3h-0.8V281.9z"/>
	<path d="M166.3,285.8c-0.8,0-1.5-0.2-2-0.7c-0.5-0.5-0.7-1.2-0.7-2c0-0.9,0.2-1.6,0.7-2.1s1-0.8,1.8-0.8c0.7,0,1.3,0.2,1.7,0.6
		s0.6,1,0.6,1.8v0.6h-3.6c0,0.5,0.2,0.9,0.4,1.2c0.3,0.3,0.6,0.4,1.1,0.4c0.3,0,0.6,0,0.9-0.1c0.3-0.1,0.6-0.2,0.9-0.3v0.9
		c-0.3,0.1-0.6,0.2-0.8,0.3S166.7,285.8,166.3,285.8z M166.1,281.1c-0.4,0-0.7,0.1-0.9,0.3s-0.4,0.6-0.4,1h2.5c0-0.4-0.1-0.8-0.3-1
		C166.8,281.2,166.5,281.1,166.1,281.1z"/>
	<path d="M173.4,284.2c0,0.5-0.2,0.9-0.6,1.2c-0.4,0.3-0.9,0.4-1.7,0.4c-0.7,0-1.3-0.1-1.7-0.3v-1c0.6,0.3,1.2,0.4,1.8,0.4
		c0.7,0,1.1-0.2,1.1-0.6c0-0.1,0-0.3-0.1-0.3s-0.2-0.2-0.4-0.3s-0.4-0.2-0.7-0.3c-0.6-0.2-1-0.5-1.3-0.7s-0.3-0.6-0.3-0.9
		c0-0.5,0.2-0.8,0.6-1.1c0.4-0.3,0.9-0.4,1.5-0.4c0.6,0,1.2,0.1,1.8,0.4l-0.4,0.9c-0.6-0.2-1.1-0.4-1.5-0.4c-0.6,0-0.9,0.2-0.9,0.5
		c0,0.2,0.1,0.3,0.2,0.4s0.5,0.3,1,0.5c0.4,0.2,0.8,0.3,1,0.5s0.4,0.3,0.4,0.5C173.3,283.7,173.4,283.9,173.4,284.2z"/>
	<path d="M177,285.8c-0.8,0-1.5-0.2-2-0.7c-0.5-0.5-0.7-1.2-0.7-2c0-0.9,0.2-1.6,0.7-2.1s1-0.8,1.8-0.8c0.7,0,1.3,0.2,1.7,0.6
		s0.6,1,0.6,1.8v0.6h-3.6c0,0.5,0.2,0.9,0.4,1.2c0.3,0.3,0.6,0.4,1.1,0.4c0.3,0,0.6,0,0.9-0.1c0.3-0.1,0.6-0.2,0.9-0.3v0.9
		c-0.3,0.1-0.6,0.2-0.8,0.3S177.3,285.8,177,285.8z M176.7,281.1c-0.4,0-0.7,0.1-0.9,0.3s-0.4,0.6-0.4,1h2.5c0-0.4-0.1-0.8-0.3-1
		C177.4,281.2,177.1,281.1,176.7,281.1z"/>
	<path d="M183.7,285.7l-0.2-0.8h0c-0.3,0.3-0.5,0.6-0.8,0.7c-0.3,0.1-0.6,0.2-1,0.2c-0.5,0-0.9-0.1-1.2-0.4s-0.4-0.7-0.4-1.2
		c0-0.6,0.2-1,0.6-1.3s1-0.4,1.9-0.5l0.9,0v-0.3c0-0.3-0.1-0.6-0.2-0.8c-0.2-0.2-0.4-0.3-0.7-0.3c-0.3,0-0.5,0-0.8,0.1
		s-0.5,0.2-0.7,0.3l-0.4-0.8c0.3-0.2,0.6-0.3,1-0.3c0.3-0.1,0.7-0.1,1-0.1c0.7,0,1.2,0.1,1.6,0.4s0.5,0.8,0.5,1.4v3.6H183.7z
		 M182,285c0.4,0,0.8-0.1,1-0.3c0.3-0.2,0.4-0.6,0.4-1v-0.5l-0.7,0c-0.5,0-0.9,0.1-1.2,0.3c-0.2,0.2-0.4,0.4-0.4,0.7
		c0,0.2,0.1,0.4,0.2,0.6C181.5,284.9,181.7,285,182,285z"/>
	<path d="M188.9,280.2c0.2,0,0.4,0,0.6,0l-0.1,1.1c-0.2,0-0.3-0.1-0.5-0.1c-0.5,0-0.8,0.1-1.1,0.4s-0.4,0.7-0.4,1.2v2.8h-1.1v-5.4
		h0.9l0.2,1h0.1c0.2-0.3,0.4-0.6,0.7-0.8S188.6,280.2,188.9,280.2z"/>
	<path d="M192.6,285.8c-0.8,0-1.4-0.2-1.9-0.7c-0.4-0.5-0.6-1.2-0.6-2.1c0-0.9,0.2-1.6,0.7-2.1s1.1-0.7,1.9-0.7
		c0.6,0,1.1,0.1,1.5,0.3l-0.3,0.9c-0.5-0.2-0.9-0.3-1.2-0.3c-0.9,0-1.4,0.6-1.4,1.9c0,0.6,0.1,1.1,0.3,1.4c0.2,0.3,0.6,0.5,1,0.5
		c0.5,0,1-0.1,1.5-0.4v1c-0.2,0.1-0.4,0.2-0.7,0.3S193,285.8,192.6,285.8z"/>
	<path d="M200.2,285.7H199v-3.3c0-0.4-0.1-0.7-0.3-0.9s-0.4-0.3-0.8-0.3c-0.5,0-0.8,0.1-1.1,0.4c-0.2,0.3-0.3,0.8-0.3,1.4v2.7h-1.1
		v-7.6h1.1v1.9c0,0.3,0,0.6-0.1,1h0.1c0.2-0.3,0.4-0.5,0.7-0.6s0.6-0.2,1-0.2c1.3,0,2,0.7,2,2V285.7z"/>
</g>
<g>
	<path d="M213.4,588c-0.7,0-1.2,0.2-1.6,0.7s-0.6,1.1-0.6,2c0,0.9,0.2,1.5,0.6,2s0.9,0.7,1.6,0.7c0.3,0,0.6,0,0.9-0.1
		c0.3-0.1,0.6-0.1,0.9-0.2v1c-0.6,0.2-1.2,0.3-1.9,0.3c-1,0-1.8-0.3-2.4-0.9c-0.6-0.6-0.8-1.5-0.8-2.7c0-0.7,0.1-1.4,0.4-1.9
		s0.7-1,1.2-1.3s1.1-0.4,1.8-0.4c0.7,0,1.4,0.2,2,0.5l-0.4,1c-0.2-0.1-0.5-0.2-0.8-0.3C214,588,213.7,588,213.4,588z"/>
	<path d="M221.4,591.5c0,0.9-0.2,1.6-0.7,2.1s-1.1,0.7-1.9,0.7c-0.5,0-1-0.1-1.3-0.3s-0.7-0.6-0.9-1s-0.3-0.9-0.3-1.5
		c0-0.9,0.2-1.6,0.7-2.1s1.1-0.7,1.9-0.7c0.8,0,1.4,0.3,1.9,0.8C221.1,590,221.4,590.7,221.4,591.5z M217.4,591.5
		c0,1.2,0.5,1.9,1.4,1.9c0.9,0,1.4-0.6,1.4-1.9c0-1.2-0.5-1.9-1.4-1.9c-0.5,0-0.8,0.2-1,0.5S217.4,590.9,217.4,591.5z"/>
	<path d="M227.4,594.2h-1.2v-3.3c0-0.4-0.1-0.7-0.3-0.9s-0.4-0.3-0.8-0.3c-0.5,0-0.8,0.1-1.1,0.4s-0.3,0.8-0.3,1.4v2.7h-1.1v-5.4
		h0.9l0.2,0.7h0.1c0.2-0.3,0.4-0.5,0.7-0.6s0.6-0.2,1-0.2c1.3,0,1.9,0.7,1.9,2V594.2z"/>
	<path d="M231.2,594.3c-0.8,0-1.4-0.2-1.9-0.7c-0.4-0.5-0.6-1.2-0.6-2.1c0-0.9,0.2-1.6,0.7-2.1s1.1-0.7,1.9-0.7
		c0.6,0,1.1,0.1,1.5,0.3l-0.3,0.9c-0.5-0.2-0.9-0.3-1.2-0.3c-0.9,0-1.4,0.6-1.4,1.9c0,0.6,0.1,1.1,0.3,1.4c0.2,0.3,0.6,0.5,1,0.5
		c0.5,0,1-0.1,1.5-0.4v1c-0.2,0.1-0.4,0.2-0.7,0.3S231.6,594.3,231.2,594.3z"/>
	<path d="M236.4,594.3c-0.8,0-1.5-0.2-2-0.7c-0.5-0.5-0.7-1.2-0.7-2c0-0.9,0.2-1.6,0.7-2.1s1-0.8,1.8-0.8c0.7,0,1.3,0.2,1.7,0.6
		s0.6,1,0.6,1.8v0.6h-3.6c0,0.5,0.2,0.9,0.4,1.2c0.3,0.3,0.6,0.4,1.1,0.4c0.3,0,0.6,0,0.9-0.1c0.3-0.1,0.6-0.2,0.9-0.3v0.9
		c-0.3,0.1-0.6,0.2-0.8,0.3S236.7,594.3,236.4,594.3z M236.1,589.6c-0.4,0-0.7,0.1-0.9,0.3s-0.4,0.6-0.4,1h2.5c0-0.4-0.1-0.8-0.3-1
		C236.8,589.7,236.5,589.6,236.1,589.6z"/>
	<path d="M242.5,594.3c-0.7,0-1.2-0.2-1.6-0.7h-0.1c0,0.5,0.1,0.7,0.1,0.8v2.2h-1.1v-7.8h0.9c0,0.1,0.1,0.3,0.2,0.7h0.1
		c0.4-0.5,0.9-0.8,1.6-0.8c0.7,0,1.2,0.2,1.6,0.7s0.6,1.2,0.6,2.1s-0.2,1.6-0.6,2.1S243.2,594.3,242.5,594.3z M242.2,589.7
		c-0.5,0-0.8,0.1-1,0.4s-0.3,0.7-0.3,1.3v0.2c0,0.7,0.1,1.1,0.3,1.4c0.2,0.3,0.5,0.4,1,0.4c0.4,0,0.7-0.2,0.9-0.5s0.3-0.8,0.3-1.4
		c0-0.6-0.1-1.1-0.3-1.4C242.9,589.8,242.6,589.7,242.2,589.7z"/>
	<path d="M248,593.4c0.3,0,0.6,0,0.8-0.1v0.9c-0.1,0.1-0.3,0.1-0.5,0.1c-0.2,0-0.4,0.1-0.6,0.1c-1.1,0-1.6-0.6-1.6-1.7v-2.9h-0.7
		v-0.5l0.8-0.4l0.4-1.1h0.7v1.2h1.5v0.9h-1.5v2.9c0,0.3,0.1,0.5,0.2,0.6C247.6,593.3,247.8,593.4,248,593.4z"/>
	<path d="M255.7,588c-0.7,0-1.2,0.2-1.6,0.7s-0.6,1.1-0.6,2c0,0.9,0.2,1.5,0.6,2s0.9,0.7,1.6,0.7c0.3,0,0.6,0,0.9-0.1
		c0.3-0.1,0.6-0.1,0.9-0.2v1c-0.6,0.2-1.2,0.3-1.9,0.3c-1,0-1.8-0.3-2.4-0.9c-0.6-0.6-0.8-1.5-0.8-2.7c0-0.7,0.1-1.4,0.4-1.9
		s0.7-1,1.2-1.3s1.1-0.4,1.8-0.4c0.7,0,1.4,0.2,2,0.5l-0.4,1c-0.2-0.1-0.5-0.2-0.8-0.3C256.3,588,256,588,255.7,588z"/>
	<path d="M261.6,588.7c0.2,0,0.4,0,0.6,0l-0.1,1.1c-0.2,0-0.3-0.1-0.5-0.1c-0.5,0-0.8,0.1-1.1,0.4s-0.4,0.7-0.4,1.2v2.8h-1.1v-5.4
		h0.9l0.2,1h0.1c0.2-0.3,0.4-0.6,0.7-0.8S261.3,588.7,261.6,588.7z"/>
	<path d="M265.5,594.3c-0.8,0-1.5-0.2-2-0.7c-0.5-0.5-0.7-1.2-0.7-2c0-0.9,0.2-1.6,0.7-2.1s1-0.8,1.8-0.8c0.7,0,1.3,0.2,1.7,0.6
		s0.6,1,0.6,1.8v0.6H264c0,0.5,0.2,0.9,0.4,1.2c0.3,0.3,0.6,0.4,1.1,0.4c0.3,0,0.6,0,0.9-0.1c0.3-0.1,0.6-0.2,0.9-0.3v0.9
		c-0.3,0.1-0.6,0.2-0.8,0.3S265.9,594.3,265.5,594.3z M265.3,589.6c-0.4,0-0.7,0.1-0.9,0.3s-0.4,0.6-0.4,1h2.5c0-0.4-0.1-0.8-0.3-1
		C266,589.7,265.7,589.6,265.3,589.6z"/>
	<path d="M272.3,594.2l-0.2-0.8h0c-0.3,0.3-0.5,0.6-0.8,0.7c-0.3,0.1-0.6,0.2-1,0.2c-0.5,0-0.9-0.1-1.2-0.4s-0.4-0.7-0.4-1.2
		c0-0.6,0.2-1,0.6-1.3s1-0.4,1.9-0.5l0.9,0v-0.3c0-0.3-0.1-0.6-0.2-0.8c-0.2-0.2-0.4-0.3-0.7-0.3c-0.3,0-0.5,0-0.8,0.1
		s-0.5,0.2-0.7,0.3l-0.4-0.8c0.3-0.2,0.6-0.3,1-0.3c0.3-0.1,0.7-0.1,1-0.1c0.7,0,1.2,0.1,1.6,0.4s0.5,0.8,0.5,1.4v3.6H272.3z
		 M270.6,593.5c0.4,0,0.8-0.1,1-0.3c0.3-0.2,0.4-0.6,0.4-1v-0.5l-0.7,0c-0.5,0-0.9,0.1-1.2,0.3c-0.2,0.2-0.4,0.4-0.4,0.7
		c0,0.2,0.1,0.4,0.2,0.6C270.1,593.4,270.3,593.5,270.6,593.5z"/>
	<path d="M276.7,593.4c0.3,0,0.6,0,0.8-0.1v0.9c-0.1,0.1-0.3,0.1-0.5,0.1c-0.2,0-0.4,0.1-0.6,0.1c-1.1,0-1.6-0.6-1.6-1.7v-2.9h-0.7
		v-0.5l0.8-0.4l0.4-1.1h0.7v1.2h1.5v0.9H276v2.9c0,0.3,0.1,0.5,0.2,0.6C276.3,593.3,276.5,593.4,276.7,593.4z"/>
	<path d="M278.6,587.4c0-0.2,0.1-0.4,0.2-0.5s0.3-0.2,0.5-0.2c0.2,0,0.4,0.1,0.5,0.2s0.2,0.3,0.2,0.5c0,0.2-0.1,0.3-0.2,0.5
		c-0.1,0.1-0.3,0.2-0.5,0.2c-0.2,0-0.4-0.1-0.5-0.2C278.6,587.8,278.6,587.6,278.6,587.4z M279.8,594.2h-1.1v-5.4h1.1V594.2z"/>
	<path d="M286.2,591.5c0,0.9-0.2,1.6-0.7,2.1s-1.1,0.7-1.9,0.7c-0.5,0-1-0.1-1.3-0.3s-0.7-0.6-0.9-1s-0.3-0.9-0.3-1.5
		c0-0.9,0.2-1.6,0.7-2.1s1.1-0.7,1.9-0.7c0.8,0,1.4,0.3,1.9,0.8C286,590,286.2,590.7,286.2,591.5z M282.3,591.5
		c0,1.2,0.5,1.9,1.4,1.9c0.9,0,1.4-0.6,1.4-1.9c0-1.2-0.5-1.9-1.4-1.9c-0.5,0-0.8,0.2-1,0.5S282.3,590.9,282.3,591.5z"/>
	<path d="M292.3,594.2h-1.2v-3.3c0-0.4-0.1-0.7-0.3-0.9s-0.4-0.3-0.8-0.3c-0.5,0-0.8,0.1-1.1,0.4s-0.3,0.8-0.3,1.4v2.7h-1.1v-5.4
		h0.9l0.2,0.7h0.1c0.2-0.3,0.4-0.5,0.7-0.6s0.6-0.2,1-0.2c1.3,0,1.9,0.7,1.9,2V594.2z"/>
</g>
<g>
	<path d="M839.8,203.9c0,1.2-0.3,2.1-1,2.7c-0.7,0.6-1.6,0.9-2.8,0.9h-2v-7.1h2.2c1.1,0,2,0.3,2.7,0.9
		C839.5,201.9,839.8,202.8,839.8,203.9z M838.6,203.9c0-1.7-0.8-2.6-2.4-2.6h-1v5.2h0.8C837.7,206.5,838.6,205.6,838.6,203.9z"/>
	<path d="M843.6,207.6c-0.8,0-1.5-0.2-2-0.7c-0.5-0.5-0.7-1.2-0.7-2c0-0.9,0.2-1.6,0.7-2.1s1-0.8,1.8-0.8c0.7,0,1.3,0.2,1.7,0.6
		c0.4,0.4,0.6,1,0.6,1.8v0.6h-3.6c0,0.5,0.2,0.9,0.4,1.2c0.3,0.3,0.6,0.4,1.1,0.4c0.3,0,0.6,0,0.9-0.1c0.3-0.1,0.6-0.2,0.9-0.3v0.9
		c-0.3,0.1-0.6,0.2-0.8,0.3C844.2,207.6,843.9,207.6,843.6,207.6z M843.3,202.9c-0.4,0-0.7,0.1-0.9,0.3s-0.4,0.6-0.4,1h2.5
		c0-0.4-0.1-0.8-0.3-1C844,203,843.7,202.9,843.3,202.9z"/>
	<path d="M850.6,206c0,0.5-0.2,0.9-0.6,1.2c-0.4,0.3-0.9,0.4-1.7,0.4c-0.7,0-1.3-0.1-1.7-0.3v-1c0.6,0.3,1.2,0.4,1.8,0.4
		c0.7,0,1.1-0.2,1.1-0.6c0-0.1,0-0.3-0.1-0.3s-0.2-0.2-0.4-0.3c-0.2-0.1-0.4-0.2-0.7-0.3c-0.6-0.2-1-0.5-1.3-0.7s-0.3-0.6-0.3-0.9
		c0-0.5,0.2-0.8,0.6-1.1c0.4-0.3,0.9-0.4,1.5-0.4c0.6,0,1.2,0.1,1.8,0.4l-0.4,0.9c-0.6-0.2-1.1-0.4-1.5-0.4c-0.6,0-0.9,0.2-0.9,0.5
		c0,0.2,0.1,0.3,0.2,0.4s0.5,0.3,1,0.5c0.4,0.2,0.8,0.3,1,0.5c0.2,0.1,0.4,0.3,0.4,0.5C850.5,205.5,850.6,205.7,850.6,206z"/>
	<path d="M851.8,200.7c0-0.2,0.1-0.4,0.2-0.5s0.3-0.2,0.5-0.2c0.2,0,0.4,0.1,0.5,0.2s0.2,0.3,0.2,0.5c0,0.2-0.1,0.3-0.2,0.5
		c-0.1,0.1-0.3,0.2-0.5,0.2c-0.2,0-0.4-0.1-0.5-0.2C851.8,201,851.8,200.9,851.8,200.7z M853,207.5h-1.1v-5.4h1.1V207.5z"/>
	<path d="M859.2,202.1v0.6l-0.9,0.2c0.1,0.1,0.2,0.3,0.2,0.4c0.1,0.2,0.1,0.3,0.1,0.5c0,0.6-0.2,1-0.6,1.3c-0.4,0.3-0.9,0.5-1.6,0.5
		c-0.2,0-0.3,0-0.5,0c-0.2,0.2-0.4,0.3-0.4,0.5c0,0.1,0.1,0.2,0.2,0.3s0.3,0.1,0.6,0.1h0.9c0.6,0,1,0.1,1.4,0.4
		c0.3,0.3,0.5,0.6,0.5,1.1c0,0.6-0.3,1.1-0.8,1.4c-0.5,0.3-1.2,0.5-2.2,0.5c-0.7,0-1.3-0.1-1.7-0.4c-0.4-0.3-0.6-0.6-0.6-1.1
		c0-0.3,0.1-0.6,0.3-0.8c0.2-0.2,0.5-0.4,0.9-0.5c-0.2-0.1-0.3-0.2-0.4-0.3c-0.1-0.1-0.1-0.3-0.1-0.5c0-0.2,0.1-0.4,0.2-0.5
		c0.1-0.1,0.3-0.3,0.5-0.4c-0.3-0.1-0.5-0.3-0.7-0.6c-0.2-0.3-0.3-0.6-0.3-1c0-0.6,0.2-1,0.6-1.4s0.9-0.5,1.6-0.5c0.2,0,0.3,0,0.5,0
		c0.2,0,0.3,0,0.4,0.1H859.2z M854.9,208.3c0,0.2,0.1,0.4,0.3,0.6s0.5,0.2,0.9,0.2c0.6,0,1.1-0.1,1.4-0.3c0.3-0.2,0.5-0.4,0.5-0.7
		c0-0.2-0.1-0.4-0.3-0.5c-0.2-0.1-0.5-0.1-0.9-0.1H856c-0.3,0-0.6,0.1-0.8,0.2C855,207.9,854.9,208.1,854.9,208.3z M855.4,203.9
		c0,0.3,0.1,0.6,0.3,0.8s0.4,0.3,0.7,0.3c0.7,0,1-0.4,1-1.1c0-0.4-0.1-0.6-0.2-0.8c-0.2-0.2-0.4-0.3-0.8-0.3c-0.3,0-0.6,0.1-0.8,0.3
		S855.4,203.5,855.4,203.9z"/>
	<path d="M864.9,207.5h-1.2v-3.3c0-0.4-0.1-0.7-0.3-0.9s-0.4-0.3-0.8-0.3c-0.5,0-0.8,0.1-1.1,0.4s-0.3,0.8-0.3,1.4v2.7h-1.1v-5.4
		h0.9l0.2,0.7h0.1c0.2-0.3,0.4-0.5,0.7-0.6c0.3-0.1,0.6-0.2,1-0.2c1.3,0,1.9,0.7,1.9,2V207.5z"/>
	<path d="M869.2,207.5v-7.1h1.2v7.1H869.2z"/>
	<path d="M874.2,206.7c0.3,0,0.6,0,0.8-0.1v0.9c-0.1,0.1-0.3,0.1-0.5,0.1c-0.2,0-0.4,0.1-0.6,0.1c-1.1,0-1.6-0.6-1.6-1.7V203h-0.7
		v-0.5l0.8-0.4l0.4-1.1h0.7v1.2h1.5v0.9h-1.5v2.9c0,0.3,0.1,0.5,0.2,0.6C873.8,206.6,874,206.7,874.2,206.7z"/>
	<path d="M878.5,207.6c-0.8,0-1.5-0.2-2-0.7c-0.5-0.5-0.7-1.2-0.7-2c0-0.9,0.2-1.6,0.7-2.1s1-0.8,1.8-0.8c0.7,0,1.3,0.2,1.7,0.6
		c0.4,0.4,0.6,1,0.6,1.8v0.6H877c0,0.5,0.2,0.9,0.4,1.2c0.3,0.3,0.6,0.4,1.1,0.4c0.3,0,0.6,0,0.9-0.1c0.3-0.1,0.6-0.2,0.9-0.3v0.9
		c-0.3,0.1-0.6,0.2-0.8,0.3C879.2,207.6,878.8,207.6,878.5,207.6z M878.2,202.9c-0.4,0-0.7,0.1-0.9,0.3s-0.4,0.6-0.4,1h2.5
		c0-0.4-0.1-0.8-0.3-1C878.9,203,878.6,202.9,878.2,202.9z"/>
	<path d="M884.6,202c0.2,0,0.4,0,0.6,0l-0.1,1.1c-0.2,0-0.3-0.1-0.5-0.1c-0.5,0-0.8,0.1-1.1,0.4s-0.4,0.7-0.4,1.2v2.8h-1.1v-5.4h0.9
		l0.2,1h0.1c0.2-0.3,0.4-0.6,0.7-0.8S884.3,202,884.6,202z"/>
	<path d="M889.6,207.5l-0.2-0.8h0c-0.3,0.3-0.5,0.6-0.8,0.7c-0.3,0.1-0.6,0.2-1,0.2c-0.5,0-0.9-0.1-1.2-0.4s-0.4-0.7-0.4-1.2
		c0-0.6,0.2-1,0.6-1.3c0.4-0.3,1-0.4,1.9-0.5l0.9,0v-0.3c0-0.3-0.1-0.6-0.2-0.8c-0.2-0.2-0.4-0.3-0.7-0.3c-0.3,0-0.5,0-0.8,0.1
		s-0.5,0.2-0.7,0.3l-0.4-0.8c0.3-0.2,0.6-0.3,1-0.3c0.3-0.1,0.7-0.1,1-0.1c0.7,0,1.2,0.1,1.6,0.4s0.5,0.8,0.5,1.4v3.6H889.6z
		 M887.8,206.7c0.4,0,0.8-0.1,1-0.3c0.3-0.2,0.4-0.6,0.4-1v-0.5l-0.7,0c-0.5,0-0.9,0.1-1.2,0.3c-0.2,0.2-0.4,0.4-0.4,0.7
		c0,0.2,0.1,0.4,0.2,0.6C887.3,206.7,887.6,206.7,887.8,206.7z"/>
	<path d="M894,206.7c0.3,0,0.6,0,0.8-0.1v0.9c-0.1,0.1-0.3,0.1-0.5,0.1c-0.2,0-0.4,0.1-0.6,0.1c-1.1,0-1.6-0.6-1.6-1.7V203h-0.7
		v-0.5l0.8-0.4l0.4-1.1h0.7v1.2h1.5v0.9h-1.5v2.9c0,0.3,0.1,0.5,0.2,0.6C893.6,206.6,893.8,206.7,894,206.7z"/>
	<path d="M895.8,200.7c0-0.2,0.1-0.4,0.2-0.5s0.3-0.2,0.5-0.2c0.2,0,0.4,0.1,0.5,0.2s0.2,0.3,0.2,0.5c0,0.2-0.1,0.3-0.2,0.5
		c-0.1,0.1-0.3,0.2-0.5,0.2c-0.2,0-0.4-0.1-0.5-0.2C895.9,201,895.8,200.9,895.8,200.7z M897.1,207.5h-1.1v-5.4h1.1V207.5z"/>
	<path d="M903.5,204.8c0,0.9-0.2,1.6-0.7,2.1c-0.5,0.5-1.1,0.7-1.9,0.7c-0.5,0-1-0.1-1.3-0.3c-0.4-0.2-0.7-0.6-0.9-1
		c-0.2-0.4-0.3-0.9-0.3-1.5c0-0.9,0.2-1.6,0.7-2.1s1.1-0.7,1.9-0.7c0.8,0,1.4,0.3,1.9,0.8C903.3,203.3,903.5,203.9,903.5,204.8z
		 M899.6,204.8c0,1.2,0.5,1.9,1.4,1.9c0.9,0,1.4-0.6,1.4-1.9c0-1.2-0.5-1.9-1.4-1.9c-0.5,0-0.8,0.2-1,0.5S899.6,204.2,899.6,204.8z"
		/>
	<path d="M909.6,207.5h-1.2v-3.3c0-0.4-0.1-0.7-0.3-0.9s-0.4-0.3-0.8-0.3c-0.5,0-0.8,0.1-1.1,0.4s-0.3,0.8-0.3,1.4v2.7h-1.1v-5.4
		h0.9l0.2,0.7h0.1c0.2-0.3,0.4-0.5,0.7-0.6c0.3-0.1,0.6-0.2,1-0.2c1.3,0,1.9,0.7,1.9,2V207.5z"/>
</g>
<g>
	<path d="M957.6,514.8h2.1c1,0,1.7,0.1,2.1,0.4c0.4,0.3,0.7,0.7,0.7,1.4c0,0.4-0.1,0.8-0.3,1s-0.5,0.5-0.9,0.5v0
		c0.5,0.1,0.9,0.3,1.1,0.6c0.2,0.3,0.4,0.7,0.4,1.1c0,0.6-0.2,1.1-0.7,1.5c-0.4,0.4-1.1,0.5-1.9,0.5h-2.6V514.8z M958.7,517.7h1.1
		c0.5,0,0.8-0.1,1.1-0.2c0.2-0.2,0.3-0.4,0.3-0.8c0-0.3-0.1-0.6-0.4-0.7c-0.2-0.1-0.6-0.2-1.2-0.2h-1V517.7z M958.7,518.7v2.3h1.2
		c0.5,0,0.9-0.1,1.1-0.3c0.2-0.2,0.4-0.5,0.4-0.9c0-0.4-0.1-0.6-0.4-0.8s-0.6-0.3-1.2-0.3H958.7z"/>
	<path d="M967.9,521.9l-0.2-0.7h-0.1c-0.2,0.3-0.4,0.4-0.7,0.6c-0.3,0.1-0.6,0.2-1,0.2c-0.7,0-1.1-0.2-1.5-0.5s-0.5-0.8-0.5-1.5
		v-3.5h1.2v3.3c0,0.4,0.1,0.7,0.3,0.9c0.2,0.2,0.4,0.3,0.8,0.3c0.5,0,0.8-0.1,1.1-0.4c0.2-0.3,0.3-0.8,0.3-1.4v-2.7h1.2v5.4H967.9z"
		/>
	<path d="M970.3,515.1c0-0.2,0.1-0.4,0.2-0.5c0.1-0.1,0.3-0.2,0.5-0.2c0.2,0,0.4,0.1,0.5,0.2c0.1,0.1,0.2,0.3,0.2,0.5
		c0,0.2-0.1,0.3-0.2,0.5c-0.1,0.1-0.3,0.2-0.5,0.2c-0.2,0-0.4-0.1-0.5-0.2C970.4,515.4,970.3,515.3,970.3,515.1z M971.6,521.9h-1.1
		v-5.4h1.1V521.9z"/>
	<path d="M974.3,521.9h-1.1v-7.6h1.1V521.9z"/>
	<path d="M977.8,522c-0.7,0-1.2-0.2-1.6-0.7s-0.6-1.2-0.6-2.1c0-0.9,0.2-1.6,0.6-2.1c0.4-0.5,0.9-0.7,1.6-0.7c0.7,0,1.2,0.3,1.6,0.8
		h0.1c-0.1-0.4-0.1-0.7-0.1-0.9v-2h1.2v7.6h-0.9l-0.2-0.7h-0.1C979.1,521.7,978.5,522,977.8,522z M978.1,521.1c0.5,0,0.8-0.1,1-0.4
		c0.2-0.3,0.3-0.7,0.3-1.3v-0.2c0-0.7-0.1-1.2-0.3-1.5s-0.6-0.4-1-0.4c-0.4,0-0.7,0.2-0.9,0.5c-0.2,0.3-0.3,0.8-0.3,1.4
		c0,0.6,0.1,1.1,0.3,1.4C977.4,520.9,977.7,521.1,978.1,521.1z"/>
	<path d="M984.5,520c0-0.4,0.1-0.8,0.3-1.1c0.2-0.3,0.6-0.6,1.1-0.9c-0.3-0.4-0.5-0.7-0.6-0.9c-0.1-0.2-0.2-0.5-0.2-0.8
		c0-0.5,0.2-0.9,0.5-1.2c0.4-0.3,0.8-0.4,1.4-0.4c0.6,0,1,0.1,1.4,0.4c0.3,0.3,0.5,0.7,0.5,1.1c0,0.4-0.1,0.7-0.3,1
		c-0.2,0.3-0.6,0.6-1.1,0.9l1.7,1.6c0.3-0.3,0.5-0.9,0.7-1.5h1.2c-0.2,0.9-0.6,1.7-1.1,2.3l1.5,1.4h-1.5l-0.7-0.7
		c-0.3,0.3-0.7,0.5-1.1,0.6c-0.4,0.1-0.8,0.2-1.2,0.2c-0.7,0-1.3-0.2-1.8-0.5S984.5,520.6,984.5,520z M986.9,521
		c0.6,0,1.1-0.2,1.5-0.5l-1.9-1.8c-0.3,0.2-0.6,0.4-0.7,0.6c-0.1,0.2-0.2,0.4-0.2,0.7c0,0.3,0.1,0.6,0.3,0.8
		C986.2,520.9,986.5,521,986.9,521z M986.2,516.3c0,0.2,0.1,0.4,0.2,0.6c0.1,0.2,0.3,0.4,0.5,0.6c0.4-0.2,0.6-0.4,0.8-0.6
		c0.1-0.2,0.2-0.4,0.2-0.6c0-0.2-0.1-0.4-0.2-0.5c-0.1-0.1-0.3-0.2-0.6-0.2c-0.3,0-0.5,0.1-0.6,0.2
		C986.3,515.9,986.2,516.1,986.2,516.3z"/>
	<path d="M999.1,520c0,0.6-0.2,1.1-0.7,1.5s-1.1,0.5-1.9,0.5s-1.5-0.1-2-0.4v-1.1c0.3,0.2,0.7,0.3,1,0.4c0.4,0.1,0.7,0.1,1,0.1
		c0.5,0,0.8-0.1,1-0.3c0.2-0.2,0.3-0.4,0.3-0.7c0-0.3-0.1-0.5-0.3-0.7s-0.6-0.4-1.2-0.7c-0.7-0.3-1.1-0.6-1.4-0.9s-0.4-0.7-0.4-1.2
		c0-0.6,0.2-1.1,0.6-1.4s1-0.5,1.7-0.5c0.7,0,1.4,0.1,2,0.4l-0.4,1c-0.6-0.3-1.2-0.4-1.7-0.4c-0.4,0-0.7,0.1-0.9,0.2
		c-0.2,0.2-0.3,0.4-0.3,0.7c0,0.2,0,0.3,0.1,0.5c0.1,0.1,0.2,0.3,0.4,0.4s0.5,0.3,1,0.5c0.5,0.2,0.9,0.4,1.2,0.6s0.4,0.4,0.5,0.6
		S999.1,519.6,999.1,520z"/>
	<path d="M1005.1,521.9h-1.2v-3.3c0-0.4-0.1-0.7-0.3-0.9c-0.2-0.2-0.4-0.3-0.8-0.3c-0.5,0-0.8,0.1-1.1,0.4c-0.2,0.3-0.3,0.8-0.3,1.4
		v2.7h-1.1v-7.6h1.1v1.9c0,0.3,0,0.6-0.1,1h0.1c0.2-0.3,0.4-0.5,0.7-0.6c0.3-0.1,0.6-0.2,1-0.2c1.3,0,2,0.7,2,2V521.9z"/>
	<path d="M1006.6,515.1c0-0.2,0.1-0.4,0.2-0.5c0.1-0.1,0.3-0.2,0.5-0.2c0.2,0,0.4,0.1,0.5,0.2c0.1,0.1,0.2,0.3,0.2,0.5
		c0,0.2-0.1,0.3-0.2,0.5c-0.1,0.1-0.3,0.2-0.5,0.2c-0.2,0-0.4-0.1-0.5-0.2C1006.6,515.4,1006.6,515.3,1006.6,515.1z M1007.8,521.9
		h-1.1v-5.4h1.1V521.9z"/>
	<path d="M1012.2,522c-0.7,0-1.2-0.2-1.6-0.7h-0.1c0,0.5,0.1,0.7,0.1,0.8v2.2h-1.1v-7.8h0.9c0,0.1,0.1,0.3,0.2,0.7h0.1
		c0.4-0.5,0.9-0.8,1.6-0.8c0.7,0,1.2,0.2,1.6,0.7c0.4,0.5,0.6,1.2,0.6,2.1s-0.2,1.6-0.6,2.1C1013.4,521.7,1012.9,522,1012.2,522z
		 M1011.9,517.3c-0.5,0-0.8,0.1-1,0.4c-0.2,0.3-0.3,0.7-0.3,1.3v0.2c0,0.7,0.1,1.1,0.3,1.4c0.2,0.3,0.5,0.4,1,0.4
		c0.4,0,0.7-0.2,0.9-0.5s0.3-0.8,0.3-1.4c0-0.6-0.1-1.1-0.3-1.4C1012.6,517.5,1012.3,517.3,1011.9,517.3z"/>
</g>
<g>
	<path d="M1072.8,468l-2.1-6h0c0.1,0.9,0.1,1.7,0.1,2.5v3.5h-1.1v-7.1h1.6l2,5.7h0l2-5.7h1.7v7.1h-1.1v-3.5c0-0.4,0-0.8,0-1.4
		s0-0.9,0-1h0l-2.1,6H1072.8z"/>
	<path d="M1081.2,468.1c-0.8,0-1.5-0.2-2-0.7c-0.5-0.5-0.7-1.2-0.7-2c0-0.9,0.2-1.6,0.7-2.1s1-0.8,1.8-0.8c0.7,0,1.3,0.2,1.7,0.6
		c0.4,0.4,0.6,1,0.6,1.8v0.6h-3.6c0,0.5,0.2,0.9,0.4,1.2c0.3,0.3,0.6,0.4,1.1,0.4c0.3,0,0.6,0,0.9-0.1c0.3-0.1,0.6-0.2,0.9-0.3v0.9
		c-0.3,0.1-0.6,0.2-0.8,0.3C1081.9,468.1,1081.6,468.1,1081.2,468.1z M1081,463.4c-0.4,0-0.7,0.1-0.9,0.3s-0.4,0.6-0.4,1h2.5
		c0-0.4-0.1-0.8-0.3-1C1081.6,463.5,1081.4,463.4,1081,463.4z"/>
	<path d="M1088,468l-0.2-0.8h0c-0.3,0.3-0.5,0.6-0.8,0.7c-0.3,0.1-0.6,0.2-1,0.2c-0.5,0-0.9-0.1-1.2-0.4s-0.4-0.7-0.4-1.2
		c0-0.6,0.2-1,0.6-1.3c0.4-0.3,1-0.4,1.9-0.5l0.9,0v-0.3c0-0.3-0.1-0.6-0.2-0.8c-0.2-0.2-0.4-0.3-0.8-0.3c-0.3,0-0.5,0-0.8,0.1
		s-0.5,0.2-0.7,0.3l-0.4-0.8c0.3-0.2,0.6-0.3,1-0.3c0.3-0.1,0.7-0.1,1-0.1c0.7,0,1.2,0.1,1.6,0.4s0.5,0.8,0.5,1.4v3.6H1088z
		 M1086.3,467.3c0.4,0,0.8-0.1,1-0.3c0.3-0.2,0.4-0.6,0.4-1v-0.5l-0.7,0c-0.5,0-0.9,0.1-1.2,0.3c-0.2,0.2-0.4,0.4-0.4,0.7
		c0,0.2,0.1,0.4,0.2,0.6C1085.8,467.2,1086,467.3,1086.3,467.3z"/>
	<path d="M1094,466.5c0,0.5-0.2,0.9-0.6,1.2c-0.4,0.3-0.9,0.4-1.7,0.4c-0.7,0-1.3-0.1-1.7-0.3v-1c0.6,0.3,1.2,0.4,1.8,0.4
		c0.7,0,1.1-0.2,1.1-0.6c0-0.1,0-0.3-0.1-0.3s-0.2-0.2-0.4-0.3c-0.2-0.1-0.4-0.2-0.7-0.3c-0.6-0.2-1-0.5-1.3-0.7s-0.3-0.6-0.3-0.9
		c0-0.5,0.2-0.8,0.6-1.1c0.4-0.3,0.9-0.4,1.5-0.4c0.6,0,1.2,0.1,1.8,0.4l-0.4,0.9c-0.6-0.2-1.1-0.4-1.5-0.4c-0.6,0-0.9,0.2-0.9,0.5
		c0,0.2,0.1,0.3,0.2,0.4s0.5,0.3,1,0.5c0.4,0.2,0.8,0.3,1,0.5c0.2,0.1,0.4,0.3,0.4,0.5C1094,466,1094,466.2,1094,466.5z"/>
	<path d="M1099.1,468l-0.2-0.7h-0.1c-0.2,0.3-0.4,0.4-0.7,0.6s-0.6,0.2-1,0.2c-0.7,0-1.1-0.2-1.5-0.5s-0.5-0.8-0.5-1.5v-3.5h1.2v3.3
		c0,0.4,0.1,0.7,0.3,0.9c0.2,0.2,0.4,0.3,0.8,0.3c0.5,0,0.8-0.1,1.1-0.4c0.2-0.3,0.3-0.8,0.3-1.4v-2.7h1.2v5.4H1099.1z"/>
	<path d="M1104.4,462.6c0.2,0,0.4,0,0.6,0l-0.1,1.1c-0.2,0-0.3-0.1-0.5-0.1c-0.5,0-0.8,0.1-1.1,0.4s-0.4,0.7-0.4,1.2v2.8h-1.1v-5.4
		h0.9l0.2,1h0.1c0.2-0.3,0.4-0.6,0.7-0.8S1104,462.6,1104.4,462.6z"/>
	<path d="M1108.3,468.1c-0.8,0-1.5-0.2-2-0.7c-0.5-0.5-0.7-1.2-0.7-2c0-0.9,0.2-1.6,0.7-2.1s1-0.8,1.8-0.8c0.7,0,1.3,0.2,1.7,0.6
		c0.4,0.4,0.6,1,0.6,1.8v0.6h-3.6c0,0.5,0.2,0.9,0.4,1.2c0.3,0.3,0.6,0.4,1.1,0.4c0.3,0,0.6,0,0.9-0.1c0.3-0.1,0.6-0.2,0.9-0.3v0.9
		c-0.3,0.1-0.6,0.2-0.8,0.3C1109,468.1,1108.7,468.1,1108.3,468.1z M1108.1,463.4c-0.4,0-0.7,0.1-0.9,0.3s-0.4,0.6-0.4,1h2.5
		c0-0.4-0.1-0.8-0.3-1C1108.7,463.5,1108.4,463.4,1108.1,463.4z"/>
</g>
<circle class="st11" cx="118.2" cy="424.2" r="6.5"/>
<circle class="st11" cx="519.4" cy="159.1" r="6.5"/>
<circle class="st15" cx="196.3" cy="101.5" r="6.5"/>
<circle class="st13" cx="281.3" cy="255.7" r="6.5"/>
<circle class="st13" cx="358.5" cy="206.7" r="6.5"/>
<circle class="st30" cx="870" cy="225.9" r="11.8"/>
<g>
	<path class="st8" d="M872.7,224c0,0.4-0.1,0.8-0.4,1.1c-0.3,0.3-0.6,0.5-1.1,0.6v0c0.6,0.1,1,0.2,1.3,0.5c0.3,0.3,0.4,0.7,0.4,1.1
		c0,0.7-0.2,1.2-0.7,1.6c-0.5,0.4-1.2,0.6-2.1,0.6c-0.8,0-1.5-0.1-2.1-0.4V228c0.3,0.1,0.6,0.3,0.9,0.3s0.7,0.1,1,0.1
		c0.5,0,0.9-0.1,1.1-0.3c0.2-0.2,0.4-0.4,0.4-0.8c0-0.3-0.1-0.6-0.4-0.7s-0.7-0.2-1.3-0.2h-0.5v-1.2h0.6c0.6,0,1-0.1,1.2-0.2
		c0.3-0.1,0.4-0.4,0.4-0.7c0-0.5-0.3-0.8-1-0.8c-0.2,0-0.5,0-0.7,0.1s-0.5,0.2-0.8,0.4l-0.7-1c0.7-0.5,1.4-0.7,2.3-0.7
		c0.7,0,1.3,0.1,1.8,0.4S872.7,223.5,872.7,224z"/>
</g>
<circle class="st30" cx="983.8" cy="539" r="11.8"/>
<g>
	<path class="st8" d="M986,540.8h-0.9v1.5h-1.5v-1.5h-3v-1l3.1-4.6h1.4v4.5h0.9V540.8z M983.6,539.6v-1.2c0-0.2,0-0.5,0-0.9
		c0-0.4,0-0.6,0-0.7h0c-0.1,0.3-0.3,0.5-0.4,0.8l-1.3,2H983.6z"/>
</g>
<circle class="st30" cx="1089.2" cy="484.3" r="11.8"/>
<g>
	<path class="st8" d="M1088.8,483.4c0.7,0,1.2,0.2,1.6,0.6s0.6,0.9,0.6,1.6c0,0.8-0.2,1.4-0.7,1.8c-0.5,0.4-1.2,0.6-2.1,0.6
		c-0.8,0-1.4-0.1-1.9-0.4v-1.3c0.3,0.1,0.6,0.2,0.9,0.3c0.3,0.1,0.7,0.1,1,0.1c0.9,0,1.4-0.4,1.4-1.1c0-0.7-0.5-1.1-1.4-1.1
		c-0.2,0-0.4,0-0.6,0.1c-0.2,0-0.4,0.1-0.5,0.1l-0.6-0.3l0.3-3.6h3.9v1.3h-2.5l-0.1,1.4l0.2,0
		C1088.2,483.4,1088.5,483.4,1088.8,483.4z"/>
</g>
<circle class="st30" cx="251.5" cy="564.5" r="11.8"/>
<g>
	<path class="st8" d="M254.2,568h-5v-1l1.8-1.8c0.5-0.5,0.9-0.9,1-1.1c0.2-0.2,0.3-0.4,0.4-0.6s0.1-0.4,0.1-0.6
		c0-0.3-0.1-0.5-0.2-0.6s-0.4-0.2-0.6-0.2c-0.3,0-0.5,0.1-0.8,0.2s-0.5,0.3-0.8,0.5l-0.8-1c0.4-0.3,0.6-0.5,0.9-0.6s0.5-0.2,0.8-0.3
		c0.3-0.1,0.6-0.1,0.9-0.1c0.4,0,0.8,0.1,1.2,0.2s0.6,0.4,0.8,0.7s0.3,0.6,0.3,1c0,0.3-0.1,0.6-0.2,0.9c-0.1,0.3-0.3,0.6-0.5,0.9
		s-0.7,0.7-1.3,1.3l-0.9,0.9v0.1h3.1V568z"/>
</g>
<g>
	<g>
		<line class="st17" x1="438.9" y1="339.1" x2="438.9" y2="337.6"/>
		<path class="st31" d="M438.9,334.6V169.1c0-5.5,4.5-10,10-10h67.5"/>
		<line class="st17" x1="517.9" y1="159.1" x2="519.4" y2="159.1"/>
	</g>
</g>
<g>
	<g>
		<line class="st17" x1="231.4" y1="339.1" x2="231.4" y2="337.6"/>
		<path class="st32" d="M231.4,334.6v-19.8c0-5.5-4.5-10-10-10h-94.6c-5.5,0-10,4.5-10,10v105.5"/>
		<line class="st17" x1="116.8" y1="421.8" x2="116.8" y2="423.3"/>
	</g>
</g>
<g>
	<g>
		<line class="st18" x1="386.6" y1="339.1" x2="386.6" y2="337.6"/>
		<path class="st33" d="M386.6,334.6v-35.2c0-5.5-4.5-10-10-10h-8.1c-5.5,0-10-4.5-10-10v-69.6"/>
		<line class="st18" x1="358.5" y1="208.2" x2="358.5" y2="206.7"/>
	</g>
</g>
<g>
	<g>
		<line class="st18" x1="281.3" y1="339.1" x2="281.3" y2="337.6"/>
		<line class="st34" x1="281.3" y1="334.6" x2="281.3" y2="258.7"/>
		<line class="st18" x1="281.3" y1="257.2" x2="281.3" y2="255.7"/>
	</g>
</g>
<g>
	<g>
		<line class="st19" x1="336.6" y1="339.1" x2="336.6" y2="337.6"/>
		<path class="st35" d="M336.6,334.6V138c0-5.5-4.5-10-10-10H206.3c-5.5,0-10-4.5-10-10v-13.5"/>
		<line class="st19" x1="196.3" y1="103" x2="196.3" y2="101.5"/>
	</g>
</g>
<circle class="st30" cx="177.4" cy="304.6" r="11.8"/>
<g>
	<path class="st8" d="M178.5,308.3H177v-4.1l0-0.7l0-0.7c-0.3,0.3-0.4,0.4-0.5,0.5l-0.8,0.7L175,303l2.3-1.8h1.2V308.3z"/>
</g>
<polygon class="st7" points="1086,615 856,615 846,627 1096,627 "/>
<circle class="st7" cx="765.8" cy="498.4" r="15.6"/>
<circle class="st8" cx="773.3" cy="492.3" r="2.3"/>
<rect x="791" y="404" class="st15" width="79.5" height="27"/>
<g>
	<g>
		<path class="st36" d="M704,487.8c-1.9-1.9-1.9-5,0-6.9"/>
		<path class="st36" d="M704,487.9c1.9,1.9,1.9,5,0,6.9"/>
		<path class="st36" d="M708.7,487.8c-1.9-1.9-1.9-5,0-6.9"/>
		<path class="st36" d="M708.7,487.9c1.9,1.9,1.9,5,0,6.9"/>
		<path class="st36" d="M713.4,487.8c-1.9-1.9-1.9-5,0-6.9"/>
		<path class="st36" d="M713.4,487.9c1.9,1.9,1.9,5,0,6.9"/>
	</g>
	<g>
		<path class="st36" d="M690.1,487.8c-1.9-1.9-1.9-5,0-6.9"/>
		<path class="st36" d="M690.1,487.9c1.9,1.9,1.9,5,0,6.9"/>
		<path class="st36" d="M694.8,487.8c-1.9-1.9-1.9-5,0-6.9"/>
		<path class="st36" d="M694.8,487.9c1.9,1.9,1.9,5,0,6.9"/>
		<path class="st36" d="M699.5,487.8c-1.9-1.9-1.9-5,0-6.9"/>
		<path class="st36" d="M699.5,487.9c1.9,1.9,1.9,5,0,6.9"/>
	</g>
</g>
<g>
	<path class="st8" d="M812.2,414.7c0,0.7-0.2,1.3-0.7,1.7c-0.5,0.4-1.2,0.6-2.1,0.6h-0.8v2.8h-0.8v-7.1h1.9
		C811.4,412.6,812.2,413.3,812.2,414.7z M808.6,416.2h0.7c0.7,0,1.3-0.1,1.6-0.4s0.5-0.6,0.5-1.1c0-0.5-0.2-0.8-0.5-1.1
		s-0.8-0.3-1.4-0.3h-0.9V416.2z"/>
	<path class="st8" d="M816.1,414.3c0.2,0,0.5,0,0.6,0.1l-0.1,0.8c-0.2,0-0.4-0.1-0.6-0.1c-0.4,0-0.8,0.2-1.1,0.5
		c-0.3,0.4-0.5,0.8-0.5,1.3v2.9h-0.8v-5.4h0.7l0.1,1h0c0.2-0.3,0.4-0.6,0.7-0.8S815.7,414.3,816.1,414.3z"/>
	<path class="st8" d="M822.3,417.1c0,0.9-0.2,1.6-0.7,2c-0.4,0.5-1,0.7-1.8,0.7c-0.5,0-0.9-0.1-1.3-0.3s-0.7-0.5-0.9-1
		s-0.3-0.9-0.3-1.5c0-0.9,0.2-1.6,0.7-2c0.4-0.5,1-0.7,1.8-0.7c0.7,0,1.3,0.2,1.8,0.7C822.1,415.5,822.3,416.2,822.3,417.1z
		 M818.2,417.1c0,0.7,0.1,1.2,0.4,1.6s0.7,0.5,1.2,0.5s0.9-0.2,1.2-0.5c0.3-0.4,0.4-0.9,0.4-1.6c0-0.7-0.1-1.2-0.4-1.5
		c-0.3-0.4-0.7-0.5-1.2-0.5c-0.5,0-0.9,0.2-1.2,0.5S818.2,416.4,818.2,417.1z"/>
	<path class="st8" d="M825.5,419.2c0.1,0,0.3,0,0.4,0c0.1,0,0.2,0,0.3-0.1v0.6c-0.1,0-0.2,0.1-0.4,0.1c-0.2,0-0.3,0-0.5,0
		c-1,0-1.6-0.5-1.6-1.6V415H823v-0.4l0.8-0.3l0.3-1.1h0.5v1.2h1.6v0.6h-1.6v3.1c0,0.3,0.1,0.6,0.2,0.7S825.2,419.2,825.5,419.2z"/>
	<path class="st8" d="M831.9,417.1c0,0.9-0.2,1.6-0.7,2c-0.4,0.5-1,0.7-1.8,0.7c-0.5,0-0.9-0.1-1.3-0.3s-0.7-0.5-0.9-1
		s-0.3-0.9-0.3-1.5c0-0.9,0.2-1.6,0.7-2c0.4-0.5,1-0.7,1.8-0.7c0.7,0,1.3,0.2,1.8,0.7C831.7,415.5,831.9,416.2,831.9,417.1z
		 M827.8,417.1c0,0.7,0.1,1.2,0.4,1.6s0.7,0.5,1.2,0.5s0.9-0.2,1.2-0.5c0.3-0.4,0.4-0.9,0.4-1.6c0-0.7-0.1-1.2-0.4-1.5
		c-0.3-0.4-0.7-0.5-1.2-0.5c-0.5,0-0.9,0.2-1.2,0.5S827.8,416.4,827.8,417.1z"/>
	<path class="st8" d="M835,419.2c0.1,0,0.3,0,0.4,0c0.1,0,0.2,0,0.3-0.1v0.6c-0.1,0-0.2,0.1-0.4,0.1c-0.2,0-0.3,0-0.5,0
		c-1,0-1.6-0.5-1.6-1.6V415h-0.8v-0.4l0.8-0.3l0.3-1.1h0.5v1.2h1.6v0.6h-1.6v3.1c0,0.3,0.1,0.6,0.2,0.7S834.8,419.2,835,419.2z"/>
	<path class="st8" d="M836,414.4h0.9l1.2,3.1c0.3,0.7,0.4,1.2,0.5,1.5h0c0-0.2,0.1-0.5,0.3-0.9c0.1-0.4,0.6-1.6,1.3-3.7h0.9
		l-2.3,6.1c-0.2,0.6-0.5,1-0.8,1.3c-0.3,0.3-0.7,0.4-1.1,0.4c-0.2,0-0.5,0-0.7-0.1v-0.6c0.2,0,0.4,0.1,0.6,0.1c0.6,0,1-0.3,1.2-0.9
		l0.3-0.8L836,414.4z"/>
	<path class="st8" d="M844.4,419.8c-0.3,0-0.7-0.1-1-0.2c-0.3-0.1-0.5-0.3-0.7-0.6h-0.1c0,0.3,0.1,0.6,0.1,0.9v2.2h-0.8v-7.8h0.7
		l0.1,0.7h0c0.2-0.3,0.5-0.5,0.7-0.6s0.6-0.2,1-0.2c0.7,0,1.3,0.2,1.6,0.7c0.4,0.5,0.6,1.2,0.6,2c0,0.9-0.2,1.6-0.6,2
		C845.6,419.6,845.1,419.8,844.4,419.8z M844.3,415c-0.5,0-0.9,0.2-1.2,0.5s-0.4,0.8-0.4,1.4v0.2c0,0.8,0.1,1.3,0.4,1.6
		c0.2,0.3,0.7,0.5,1.2,0.5c0.5,0,0.8-0.2,1.1-0.6c0.3-0.4,0.4-0.9,0.4-1.5c0-0.7-0.1-1.2-0.4-1.5C845.1,415.2,844.7,415,844.3,415z"
		/>
	<path class="st8" d="M850.3,419.8c-0.8,0-1.4-0.2-1.9-0.7c-0.5-0.5-0.7-1.2-0.7-2c0-0.9,0.2-1.5,0.6-2.1c0.4-0.5,1-0.8,1.7-0.8
		c0.7,0,1.2,0.2,1.6,0.7c0.4,0.4,0.6,1,0.6,1.7v0.5h-3.7c0,0.6,0.2,1.1,0.5,1.4c0.3,0.3,0.7,0.5,1.3,0.5c0.6,0,1.1-0.1,1.7-0.4v0.7
		c-0.3,0.1-0.6,0.2-0.8,0.3C850.9,419.8,850.6,419.8,850.3,419.8z M850.1,415c-0.4,0-0.8,0.1-1,0.4c-0.3,0.3-0.4,0.7-0.5,1.2h2.8
		c0-0.5-0.1-0.9-0.3-1.2C850.8,415.1,850.5,415,850.1,415z"/>
</g>
<g>
	<path class="st8" d="M775.4,471.3h-0.8v-6.4h-2.3v-0.7h5.4v0.7h-2.3V471.3z"/>
	<path class="st8" d="M780.8,471.4c-0.8,0-1.4-0.2-1.9-0.7c-0.5-0.5-0.7-1.2-0.7-2c0-0.9,0.2-1.5,0.6-2.1c0.4-0.5,1-0.8,1.7-0.8
		c0.7,0,1.2,0.2,1.6,0.7c0.4,0.4,0.6,1,0.6,1.7v0.5h-3.7c0,0.6,0.2,1.1,0.5,1.4c0.3,0.3,0.7,0.5,1.3,0.5c0.6,0,1.1-0.1,1.7-0.4v0.7
		c-0.3,0.1-0.6,0.2-0.8,0.3C781.5,471.4,781.2,471.4,780.8,471.4z M780.6,466.5c-0.4,0-0.8,0.1-1,0.4c-0.3,0.3-0.4,0.7-0.5,1.2h2.8
		c0-0.5-0.1-0.9-0.3-1.2C781.4,466.7,781,466.5,780.6,466.5z"/>
	<path class="st8" d="M787.6,469.8c0,0.5-0.2,0.9-0.6,1.2s-0.9,0.4-1.6,0.4c-0.7,0-1.3-0.1-1.7-0.3v-0.8c0.3,0.1,0.5,0.2,0.8,0.3
		c0.3,0.1,0.6,0.1,0.9,0.1c0.4,0,0.7-0.1,1-0.2c0.2-0.1,0.3-0.3,0.3-0.6c0-0.2-0.1-0.4-0.3-0.5c-0.2-0.1-0.5-0.3-1.1-0.5
		c-0.5-0.2-0.9-0.3-1.1-0.5c-0.2-0.1-0.4-0.3-0.5-0.5c-0.1-0.2-0.2-0.4-0.2-0.6c0-0.4,0.2-0.8,0.5-1c0.4-0.3,0.8-0.4,1.5-0.4
		c0.6,0,1.1,0.1,1.7,0.4l-0.3,0.7c-0.5-0.2-1-0.3-1.5-0.3c-0.4,0-0.7,0.1-0.9,0.2s-0.3,0.3-0.3,0.5c0,0.1,0,0.3,0.1,0.4
		c0.1,0.1,0.2,0.2,0.4,0.3s0.5,0.2,0.9,0.4c0.6,0.2,1.1,0.5,1.3,0.7C787.5,469.2,787.6,469.5,787.6,469.8z"/>
	<path class="st8" d="M790.7,470.7c0.1,0,0.3,0,0.4,0c0.1,0,0.2,0,0.3-0.1v0.6c-0.1,0-0.2,0.1-0.4,0.1c-0.2,0-0.3,0-0.5,0
		c-1,0-1.6-0.5-1.6-1.6v-3.2h-0.8v-0.4l0.8-0.3l0.3-1.1h0.5v1.2h1.6v0.6h-1.6v3.1c0,0.3,0.1,0.6,0.2,0.7S790.4,470.7,790.7,470.7z"
		/>
</g>
<g>
	<path class="st37" d="M712.4,429v3h-0.8v-7.1h2c0.9,0,1.5,0.2,1.9,0.5c0.4,0.3,0.6,0.8,0.6,1.5c0,0.9-0.5,1.6-1.4,1.9l1.9,3.2h-1
		l-1.7-3H712.4z M712.4,428.3h1.1c0.6,0,1-0.1,1.3-0.3c0.3-0.2,0.4-0.6,0.4-1c0-0.5-0.1-0.8-0.4-1c-0.3-0.2-0.7-0.3-1.3-0.3h-1.1
		V428.3z"/>
	<path class="st37" d="M719.9,432.1c-0.8,0-1.4-0.2-1.9-0.7c-0.5-0.5-0.7-1.2-0.7-2c0-0.9,0.2-1.5,0.6-2.1c0.4-0.5,1-0.8,1.7-0.8
		c0.7,0,1.2,0.2,1.6,0.7c0.4,0.4,0.6,1,0.6,1.7v0.5h-3.7c0,0.6,0.2,1.1,0.5,1.4c0.3,0.3,0.7,0.5,1.3,0.5c0.6,0,1.1-0.1,1.7-0.4v0.7
		c-0.3,0.1-0.6,0.2-0.8,0.3C720.6,432,720.3,432.1,719.9,432.1z M719.7,427.2c-0.4,0-0.8,0.1-1,0.4c-0.3,0.3-0.4,0.7-0.5,1.2h2.8
		c0-0.5-0.1-0.9-0.3-1.2C720.5,427.3,720.1,427.2,719.7,427.2z"/>
	<path class="st37" d="M725.7,427.2h-1.4v4.7h-0.8v-4.7h-1v-0.4l1-0.3v-0.3c0-1.3,0.6-2,1.7-2c0.3,0,0.6,0.1,1,0.2l-0.2,0.6
		c-0.3-0.1-0.6-0.2-0.8-0.2c-0.3,0-0.5,0.1-0.7,0.3c-0.1,0.2-0.2,0.5-0.2,1v0.3h1.4V427.2z M726.6,425.2c0-0.2,0-0.3,0.1-0.4
		c0.1-0.1,0.2-0.1,0.3-0.1c0.1,0,0.2,0,0.3,0.1s0.1,0.2,0.1,0.4s0,0.3-0.1,0.4c-0.1,0.1-0.2,0.1-0.3,0.1c-0.1,0-0.2,0-0.3-0.1
		C726.6,425.5,726.6,425.3,726.6,425.2z M727.5,432h-0.8v-5.4h0.8V432z"/>
	<path class="st37" d="M732.9,432v-3.5c0-0.4-0.1-0.8-0.3-1s-0.5-0.3-0.9-0.3c-0.6,0-1,0.2-1.2,0.5s-0.4,0.8-0.4,1.5v2.8h-0.8v-5.4
		h0.7l0.1,0.7h0c0.2-0.3,0.4-0.5,0.7-0.6c0.3-0.1,0.6-0.2,1-0.2c0.6,0,1.1,0.2,1.5,0.5c0.3,0.3,0.5,0.8,0.5,1.5v3.5H732.9z"/>
	<path class="st37" d="M737.6,432.1c-0.8,0-1.4-0.2-1.9-0.7c-0.5-0.5-0.7-1.2-0.7-2c0-0.9,0.2-1.5,0.6-2.1c0.4-0.5,1-0.8,1.7-0.8
		c0.7,0,1.2,0.2,1.6,0.7c0.4,0.4,0.6,1,0.6,1.7v0.5h-3.7c0,0.6,0.2,1.1,0.5,1.4c0.3,0.3,0.7,0.5,1.3,0.5c0.6,0,1.1-0.1,1.7-0.4v0.7
		c-0.3,0.1-0.6,0.2-0.8,0.3C738.3,432,738,432.1,737.6,432.1z M737.4,427.2c-0.4,0-0.8,0.1-1,0.4c-0.3,0.3-0.4,0.7-0.5,1.2h2.8
		c0-0.5-0.1-0.9-0.3-1.2C738.1,427.3,737.8,427.2,737.4,427.2z"/>
</g>
<g>
	<path class="st37" d="M410.6,488.5c-0.8,0-1.4,0.3-1.9,0.8c-0.5,0.5-0.7,1.2-0.7,2.1c0,0.9,0.2,1.7,0.7,2.2
		c0.4,0.5,1.1,0.8,1.9,0.8c0.5,0,1.1-0.1,1.7-0.3v0.7c-0.5,0.2-1.1,0.3-1.8,0.3c-1.1,0-1.9-0.3-2.4-1s-0.9-1.5-0.9-2.7
		c0-0.7,0.1-1.4,0.4-1.9s0.7-1,1.2-1.3s1.1-0.4,1.8-0.4c0.7,0,1.4,0.1,2,0.4l-0.4,0.7C411.7,488.7,411.1,488.5,410.6,488.5z"/>
	<path class="st37" d="M418.4,492.4c0,0.9-0.2,1.6-0.7,2c-0.4,0.5-1,0.7-1.8,0.7c-0.5,0-0.9-0.1-1.3-0.3s-0.7-0.5-0.9-1
		s-0.3-0.9-0.3-1.5c0-0.9,0.2-1.6,0.7-2c0.4-0.5,1-0.7,1.8-0.7c0.7,0,1.3,0.2,1.8,0.7S418.4,491.5,418.4,492.4z M414.3,492.4
		c0,0.7,0.1,1.2,0.4,1.6s0.7,0.5,1.2,0.5s0.9-0.2,1.2-0.5c0.3-0.4,0.4-0.9,0.4-1.6c0-0.7-0.1-1.2-0.4-1.5c-0.3-0.4-0.7-0.5-1.2-0.5
		c-0.5,0-0.9,0.2-1.2,0.5S414.3,491.7,414.3,492.4z"/>
	<path class="st37" d="M423.4,495v-3.5c0-0.4-0.1-0.8-0.3-1s-0.5-0.3-0.9-0.3c-0.6,0-1,0.2-1.2,0.5s-0.4,0.8-0.4,1.5v2.8h-0.8v-5.4
		h0.7l0.1,0.7h0c0.2-0.3,0.4-0.5,0.7-0.6c0.3-0.1,0.6-0.2,1-0.2c0.6,0,1.1,0.2,1.5,0.5c0.3,0.3,0.5,0.8,0.5,1.5v3.5H423.4z"/>
	<path class="st37" d="M428.1,495.1c-0.8,0-1.4-0.2-1.8-0.7c-0.4-0.5-0.6-1.2-0.6-2c0-0.9,0.2-1.6,0.6-2.1s1-0.7,1.8-0.7
		c0.3,0,0.5,0,0.8,0.1s0.5,0.1,0.6,0.2l-0.2,0.7c-0.2-0.1-0.4-0.1-0.6-0.2c-0.2,0-0.4-0.1-0.6-0.1c-1.1,0-1.6,0.7-1.6,2.1
		c0,0.7,0.1,1.2,0.4,1.5s0.7,0.5,1.2,0.5c0.4,0,0.9-0.1,1.4-0.3v0.7C429,495,428.6,495.1,428.1,495.1z"/>
	<path class="st37" d="M432.9,495.1c-0.8,0-1.4-0.2-1.9-0.7s-0.7-1.2-0.7-2c0-0.9,0.2-1.5,0.6-2.1s1-0.8,1.7-0.8
		c0.7,0,1.2,0.2,1.6,0.7c0.4,0.4,0.6,1,0.6,1.7v0.5h-3.7c0,0.6,0.2,1.1,0.5,1.4s0.7,0.5,1.3,0.5c0.6,0,1.1-0.1,1.7-0.4v0.7
		c-0.3,0.1-0.6,0.2-0.8,0.3C433.6,495.1,433.3,495.1,432.9,495.1z M432.7,490.3c-0.4,0-0.8,0.1-1,0.4s-0.4,0.7-0.5,1.2h2.8
		c0-0.5-0.1-0.9-0.3-1.2C433.5,490.4,433.1,490.3,432.7,490.3z"/>
	<path class="st37" d="M438.8,495.1c-0.3,0-0.7-0.1-1-0.2c-0.3-0.1-0.5-0.3-0.7-0.6H437c0,0.3,0.1,0.6,0.1,0.9v2.2h-0.8v-7.8h0.7
		l0.1,0.7h0c0.2-0.3,0.5-0.5,0.7-0.6s0.6-0.2,1-0.2c0.7,0,1.3,0.2,1.6,0.7s0.6,1.2,0.6,2c0,0.9-0.2,1.6-0.6,2
		C440,494.9,439.5,495.1,438.8,495.1z M438.7,490.3c-0.5,0-0.9,0.2-1.2,0.5s-0.4,0.8-0.4,1.4v0.2c0,0.8,0.1,1.3,0.4,1.6
		c0.3,0.3,0.7,0.5,1.2,0.5c0.5,0,0.8-0.2,1.1-0.6s0.4-0.9,0.4-1.5c0-0.7-0.1-1.2-0.4-1.5C439.5,490.5,439.1,490.3,438.7,490.3z"/>
	<path class="st37" d="M444.1,494.5c0.1,0,0.3,0,0.4,0c0.1,0,0.2,0,0.3-0.1v0.6c-0.1,0-0.2,0.1-0.4,0.1c-0.2,0-0.3,0-0.5,0
		c-1,0-1.6-0.5-1.6-1.6v-3.2h-0.8v-0.4l0.8-0.3l0.3-1.1h0.5v1.2h1.6v0.6h-1.6v3.1c0,0.3,0.1,0.6,0.2,0.7S443.9,494.5,444.1,494.5z"
		/>
	<path class="st37" d="M449.4,493.6c0,0.5-0.2,0.9-0.6,1.2s-0.9,0.4-1.6,0.4c-0.7,0-1.3-0.1-1.7-0.3v-0.8c0.3,0.1,0.5,0.2,0.8,0.3
		s0.6,0.1,0.9,0.1c0.4,0,0.7-0.1,1-0.2c0.2-0.1,0.3-0.3,0.3-0.6c0-0.2-0.1-0.4-0.3-0.5c-0.2-0.1-0.5-0.3-1.1-0.5
		c-0.5-0.2-0.9-0.3-1.1-0.5c-0.2-0.1-0.4-0.3-0.5-0.5s-0.2-0.4-0.2-0.6c0-0.4,0.2-0.8,0.5-1c0.4-0.3,0.8-0.4,1.5-0.4
		c0.6,0,1.1,0.1,1.7,0.4l-0.3,0.7c-0.5-0.2-1-0.3-1.5-0.3c-0.4,0-0.7,0.1-0.9,0.2s-0.3,0.3-0.3,0.5c0,0.1,0,0.3,0.1,0.4
		s0.2,0.2,0.4,0.3s0.5,0.2,0.9,0.4c0.6,0.2,1.1,0.5,1.3,0.7S449.4,493.2,449.4,493.6z"/>
</g>
<polyline class="st38" points="454.3,492.1 466.6,492.1 466.6,501 "/>
<polyline class="st38" points="401.9,492.1 388.7,492.1 388.7,501 "/>
</svg>
