<svg xmlns="http://www.w3.org/2000/svg" viewBox="0 0 1127.6 664.6" xmlns:xlink="http://www.w3.org/1999/xlink" enable-background="new 0 0 1127.6 664.6">
<defs>
<clipPath id="SVGID_6_">
<use xlink:href="#SVGID_5_"/>
</clipPath>
<filter width="1121.9" x="-236.7" y="-132.2" height="1071.3" filterUnits="userSpaceOnUse" id="Adobe_OpacityMaskFilter">
<feColorMatrix values="-1 0 0 0 1  0 -1 0 0 1  0 0 -1 0 1  0 0 0 1 0" color-interpolation-filters="sRGB" type="matrix" result="source"/>
<feFlood flood-opacity="1" result="back" flood-color="#fff"/>
<feBlend mode="normal" in="source" in2="back"/>
</filter>
<mask width="1121.9" x="-236.7" y="-132.2" height="1071.3" maskUnits="userSpaceOnUse" id="SVGID_1_">
<g filter="url(#Adobe_OpacityMaskFilter)">
<linearGradient id="SVGID_2_" y1="187.603" y2="-0" gradientUnits="userSpaceOnUse" x2="0">
<stop offset="0"/>
<stop offset=".698" stop-color="#fff"/>
</linearGradient>
<path fill="url(#SVGID_2_)" stroke="#000" d="m0,0h900.9v187.6h-900.9z" stroke-miterlimit="10"/>
<linearGradient id="SVGID_3_" y1="728" y2="439.581" gradientUnits="userSpaceOnUse" x2="0">
<stop offset=".074" stop-color="#fff"/>
<stop offset="1"/>
</linearGradient>
<path fill="url(#SVGID_3_)" stroke="#000" stroke-width="1.24" d="M 0,439.6 H900.9 V728 H0 z" stroke-miterlimit="10"/>
<linearGradient gradientTransform="matrix(0 1 -1 0 1206.254 -282.6728)" id="SVGID_4_" y1="1206.254" y2="956.141" gradientUnits="userSpaceOnUse" x2="0">
<stop offset=".067" stop-color="#fff"/>
<stop offset="1"/>
</linearGradient>
<path fill="url(#SVGID_4_)" stroke="#000" stroke-width="1.085" d="m0,3.5h250.1v796h-250.1z" stroke-miterlimit="10"/>
</g>
</mask>
<path id="SVGID_5_" d="m-77.8-132.2h963v1071.3h-963z"/>
</defs>
<g fill="#fff" stroke="#e6e7e8" mask="url(#SVGID_1_)" stroke-width="10" stroke-miterlimit="10">
<circle cx="175" cy="468.9" r="406.7" clip-path="url(#SVGID_6_)"/>
<circle cx="564" cy="121.9" r="157.9" clip-path="url(#SVGID_6_)"/>
<circle cx="112.5" cy="74.4" r="188.3" clip-path="url(#SVGID_6_)"/>
</g>
<path fill="#f9d3bd" d="m210.6,339.5h40.5v112.1h-40.5z"/>
<path fill="#a7a9ac" d="m664.9,344.1h221.1v242.6h-221.1z"/>
<path fill="#fff" d="m787.6,382.6h85.9v51.4h-85.9z"/>
<path fill="none" stroke="#fff" stroke-width="11" d="m840.4,434.1v5.3c0,4.4 3.7,8.2 8,8.2h6.5 7.9c4.3,0 8,3.8 8,8.2 0,4.4-3.7,8.2-8,8.2l-12.9-.2c-4.3,0-8,3.8-8,8.2 0,4.4 3.7,8.2 8,8.2h.3c4.3,0 8,3.8 8,8.2v7.1" stroke-miterlimit="10"/>
<g fill="#fff">
<path d="m831.2,433.2h18.4v4.7h-18.4z"/>
<path d="m849.4,492.6h18.4v4.7h-18.4z"/>
</g>
<path fill="#dcddde" d="m734.1,564.7c0,5.2-4.2,9.4-9.4,9.4h-447.2c-5.2,0-9.4-4.2-9.4-9.4 0-5.2 4.2-9.4 9.4-9.4h447.2c5.2-0 9.4,4.2 9.4,9.4z"/>
<g fill="#a7a9ac">
<path d="m864.2,227.5-15.2,0-7.4,119.3 28.9,0z"/>
<path d="m933.5,312.6c11.5-11.5-2.8-25.9-14.4-14.4l-21.6,21.6c-4,4-4,10.4 0,14.4 4,4 10.4,4 14.4,0l21.6-21.6z"/>
</g>
<path fill="#e65525" d="m210.6,376.4h39.8v75h-39.8z"/>
<path fill="#ffeec0" d="m263.1,339.5h40.5v112.1h-40.5z"/>
<path fill="#ffce02" d="m263.1,353.5h39.8v97.9h-39.8z"/>
<path fill="#fcdab8" d="m315.6,339.5h40.5v112.1h-40.5z"/>
<path fill="#f18b21" d="m315.9,395.6h39.8v55.8h-39.8z"/>
<path fill="#ffeec0" d="m368.1,339.5h40.5v112.1h-40.5z"/>
<path fill="#ffce02" d="m368.7,374.4h39.8v77h-39.8z"/>
<g fill="#fff" stroke="#a7a9ac" stroke-width="2" stroke-miterlimit="10">
<path d="m1090.5,494.1c14.6,14.6 14.6,38.3 0,52.9-14.6,14.6-38.3,14.6-52.9,0-14.6-14.6-14.6-38.3 0-52.9 14.6-14.6 38.3-14.6 52.9,0z"/>
<path d="m1064.4,618.2 0-59.1"/>
<path d="m1034.3,521.9 7.6-.1"/>
<path d="m1042.1,500.4 5.4,5.3"/>
<path d="m1062.8,490.7 .1,7.6"/>
<path d="m1084.2,498.5-5.2,5.4"/>
<path d="m1093.9,519.2-7.6,.1"/>
<path d="m1086.1,540.6-5.4-5.2"/>
<path d="m1044,542.5 5.2-5.4"/>
<path d="m1036.7,509.5 7,2.9"/>
<path d="m1052.3,492.9 2.9,6.9"/>
<path d="m1075.1,492.1-2.9,7"/>
<path d="m1091.8,507.7-7,3"/>
<path d="m1076.9,547.2-2.9-7"/>
<path d="m1037.4,532.3 7-2.9"/>
</g>
<path fill="#f18b21" d="m1091.8,533.2 1.3-4-29.2-10.3-1.4,3.9z"/>
<g fill="none" stroke-miterlimit="10">
<path stroke="#e65525" d="m231.4,452.8c0,17.9 76.1,26.1 76.1,45.3"/>
<path stroke="#ffce02" d="m285.1,455.4c0,17.9 23.4,23.4 23.4,42.7"/>
<path stroke="#f18b21" d="m336.3,455.4c0,17.9-27.1,19.3-27.1,42.7"/>
<path stroke="#ffce02" d="m390.2,455.4c0,17.9-80.4,24.8-80.4,42.7"/>
<path stroke="#e65525" d="m439.6,455.4c0,17.9-129.8,24.8-129.8,42.7"/>
</g>
<path fill="#e65525" d="m224.1,453.4h15v2h-15z"/>
<path fill="#ffce02" d="m276.4,453.4h15v2h-15z"/>
<path fill="#f18b21" d="m328.8,453.4h15v2h-15z"/>
<path fill="#ffce02" d="m381.9,453.4h15v2h-15z"/>
<path fill="#dcddde" d="m939.2,534.1c4,0 7.3-4.8 7.3-10.6 0-5.9-3.3-10.6-7.3-10.6v21.2z"/>
<g stroke-miterlimit="10">
<g fill="none" stroke-width="11">
<path stroke="#fff" d="m814.4,378.9v-6.2c0-6-4.5-10-9.2-10h-116.8c-4.3,0-8,3.8-8,8.2 0,4.4 3.7,8.2 8,8.2h6.5 71.8c4.3,0 8,3.8 8,8.2 0,4.4-3.7,8.2-8,8.2l-78.7-.2c-4.3,0-8,3.8-8,8.2 0,4.4 3.7,8.2 8,8.2h6.5 72.3c4.3,0 8,3.8 8,8.2 0,4.4-3.7,8.2-8,8.2h-67.2l-11.2,.1h-.3c-4.3,0-8,3.8-8,8.2 0,4.4 3.7,8.2 8,8.2h7.1 24.8c4.3,0 8,3.8 8,8.2 0,4.4-3.7,8.2-8,8.2h-9.9c-4.3,0-8,3.8-8,8.2v15.2"/>
<path stroke="#a7a9ac" d="m929.2,486.8v-6.6c0-4.4-3.7-8.2-8-8.2h-6-30"/>
</g>
<path fill="#ffce02" stroke="#a7a9ac" stroke-width="4.401" d="m904.8,337.4l-10.5-10.5-34,34.1c-2.9,2.9-8.8,13.5-5.9,16.4 2.9,2.9 13.5-3 16.4-5.9l34-34.1z"/>
</g>
<path fill="#e65525" d="m818.7,392c0,2.5-2,4.5-4.5,4.5-2.5,0-4.5-2-4.5-4.5 0-2.5 4.5-9.3 4.5-9.3s4.5,6.8 4.5,9.3z"/>
<path fill="#ffce02" d="m857.1,392c0,2.5-2,4.5-4.5,4.5-2.5,0-4.5-2-4.5-4.5 0-2.5 4.5-9.3 4.5-9.3s4.5,6.8 4.5,9.3z"/>
<g fill="#fff">
<path d="m308.8,531.1-10.5,0 4.7-6.9 0-17.5 5.8,0z"/>
<path d="m308.6,531.1 10.5,0-4.7-6.9 0-17.5-5.8,0z"/>
</g>
<path fill="#dcddde" d="m315.2,506.8v16.1l13.3,21.1c0,2.3-1.8,4.1-4.1,4.1h-31.6c-2.3,0-4.1-1.8-4.1-4.1l13.3-20.7v-16.5"/>
<path fill="#e65525" d="m288.8,544.1c0,2.3 1.8,4.1 4.1,4.1h31.6c2.3,0 4.1-1.8 4.1-4.1l-6.7-10.7h-26.2l-6.9,10.7z"/>
<g fill="#fff">
<path d="m548.8,531.1-10.6,0 4.8-6.9 0-17.5 5.8,0z"/>
<path d="m548.5,531.1 10.5,0-4.7-6.9 0-17.5-5.8,0z"/>
</g>
<path fill="#dcddde" d="m555.2,506.8v16.1l13.3,21.1c0,2.3-1.8,4.1-4.1,4.1h-31.6c-2.3,0-4.1-1.8-4.1-4.1l13.3-20.7v-16.5"/>
<path fill="#e65525" d="m528.7,544.1c0,2.3 1.8,4.1 4.1,4.1h31.6c2.3,0 4.1-1.8 4.1-4.1l-6.7-10.7h-26.2l-6.9,10.7z"/>
<g fill="#fff">
<path d="m701.7,531.1-10.5,0 4.7-6.9 0-17.5 5.8,0z"/>
<path d="m701.4,531.1 10.5,0-4.7-6.9 0-17.5-5.8,0z"/>
</g>
<path fill="#dcddde" d="m708.1,506.8v16.1l13.3,21.1c0,2.3-1.8,4.1-4.1,4.1h-31.6c-2.3,0-4.1-1.8-4.1-4.1l13.3-20.7v-16.5"/>
<path fill="#e65525" d="m681.6,544.1c0,2.3 1.8,4.1 4.1,4.1h31.6c2.3,0 4.1-1.8 4.1-4.1l-6.7-10.7h-26.2l-6.9,10.7z"/>
<g fill="#fff">
<path d="m388.8,531.1-10.5,0 4.7-6.9 0-17.5 5.8,0z"/>
<path d="m388.5,531.1 10.6,0-4.8-6.9 0-17.5-5.8,0z"/>
</g>
<path fill="#dcddde" d="m395.2,506.8v16.1l13.3,21.1c0,2.3-1.8,4.1-4.1,4.1h-31.6c-2.3,0-4.1-1.8-4.1-4.1l13.3-20.7v-16.5"/>
<path fill="#ffce02" d="m368.7,544.1c0,2.3 1.8,4.1 4.1,4.1h31.6c2.3,0 4.1-1.8 4.1-4.1l-6.7-10.7h-26.2l-6.9,10.7z"/>
<g fill="#fff">
<path d="m468.8,531.1-10.5,0 4.7-6.9 0-17.5 5.8,0z"/>
<path d="m468.5,531.1 10.5,0-4.7-6.9 0-17.5-5.8,0z"/>
</g>
<path fill="#dcddde" d="m475.2,506.8v16.1l13.3,21.1c0,2.3-1.8,4.1-4.1,4.1h-31.6c-2.3,0-4.1-1.8-4.1-4.1l13.3-20.7v-16.5"/>
<path fill="#f18b21" d="m448.7,544.1c0,2.3 1.8,4.1 4.1,4.1h31.6c2.3,0 4.1-1.8 4.1-4.1l-6.7-10.7h-26.2l-6.9,10.7z"/>
<g fill="#fff">
<path d="m628.7,531.1-10.5,0 4.7-6.9 0-17.5 5.8,0z"/>
<path d="m628.5,531.1 10.5,0-4.7-6.9 0-17.5-5.8,0z"/>
</g>
<path fill="#dcddde" d="m635.2,506.8v16.1l13.3,21.1c0,2.3-1.8,4.1-4.1,4.1h-31.6c-2.3,0-4.1-1.8-4.1-4.1l13.3-20.7v-16.5"/>
<path fill="#f18b21" d="m608.7,544.1c0,2.3 1.8,4.1 4.1,4.1h31.6c2.3,0 4.1-1.8 4.1-4.1l-6.7-10.7h-26.2l-6.9,10.7z"/>
<g fill="#a7a9ac">
<circle cx="1008.3" cy="603.3" r="11.5"/>
<circle cx="922.1" cy="603.3" r="11.5"/>
<circle cx="896.9" cy="603.3" r="11.5"/>
</g>
<path fill="#dcddde" d="m936.8,541.8v-5.9h-15v5.9h-58.2c0,0-12.9,1.1-12.9,22 0,20.9 12.9,22.9 12.9,22.9h119.2v-44.9h-46z"/>
<path fill="#a7a9ac" d="m993.8,603.3h-57.2-55.9-3.4-6l-8.7-3.1v-8.4h23.6 44.8 57.8v-36.9l30,2.3c0,0 6.6,16.3 8.9,22.1v15.6 5.6c0,1.6-1.3,2.9-2.9,2.9h-2-29z"/>
<g fill="#fff" stroke="#d1d3d4" stroke-miterlimit="10">
<circle cx="765.3" cy="428.6" r="2"/>
<circle cx="771.6" cy="426.5" r="2"/>
<circle cx="770.2" cy="394.4" r="2"/>
<circle cx="721.5" cy="362.6" r="2"/>
</g>
<path fill="#fcdab8" d="m848.3,509.5c0,5.8 4.7,10.6 10.6,10.6 5.8,0 10.6-4.7 10.6-10.6 0-2.6-.9-4.9-2.4-6.7h-16.3c-1.6,1.8-2.5,4.2-2.5,6.7z"/>
<path fill="#f18b21" d="m869.4,509.5c0,5.8-4.7,10.6-10.6,10.6-5.8,0-10.6-4.7-10.6-10.6h21.2z"/>
<g fill="none" stroke="#fcd9b5" stroke-width="3" stroke-miterlimit="10">
<path d="m858.8,520.2 0,11.9"/>
<path d="m850.9,532 15.9,0"/>
</g>
<g fill="#dcddde">
<path d="m949.5,518.6h3.3v9.7h-3.3z"/>
<path d="m945.5,521.7h6.5v3.3h-6.5z"/>
</g>
<g fill="#a7a9ac">
<path d="m911.5,459.9h9.7v3.3h-9.7z"/>
<path d="m914.7,460.7h3.3v6.5h-3.3z"/>
</g>
<path fill="#f18b21" d="m982.8,586.7h-120.3c0,0-11.9-1.1-11.9-24.8 28.7,0 132.1,0 132.1,0v24.8z"/>
<g fill="none" stroke-width="3" stroke-miterlimit="10">
<g stroke="#f18b21">
<path d="m929.5,538.2 0,23.6"/>
<path d="m929.5,486.8 0,47.1"/>
</g>
<path stroke="#e65525" d="m308.5,498 0,36"/>
</g>
<g fill="#f18b21">
<path d="m919.6,557.8c-1.1-1-1.1-2.7-.1-3.8 1-1.1 2.7-1.1 3.8-.1 1.1,1 2.1,5.8 2.1,5.8s-4.7-.9-5.8-1.9z"/>
<path d="m939.7,557.8c1.1-1 1.1-2.7 .1-3.8-1-1.1-2.7-1.1-3.8-.1s-2.1,5.8-2.1,5.8 4.7-.9 5.8-1.9z"/>
</g>
<g fill="none" stroke="#fff" stroke-miterlimit="10">
<circle cx="872.4" cy="567.9" r="2"/>
<circle cx="880.7" cy="573.8" r="2"/>
<circle cx="867.4" cy="575" r="2"/>
<circle cx="619.6" cy="541.5" r="1.9"/>
<circle cx="691.4" cy="538.1" r="1.9"/>
<circle cx="697.3" cy="538.1" r="1.9"/>
<circle cx="694.3" cy="543.5" r="1.9"/>
<circle cx="299.5" cy="541.5" r="1.9"/>
</g>
<g fill="#fff">
<circle cx="367.5" cy="564.8" r="3.4"/>
<circle cx="278.7" cy="564.8" r="3.4"/>
<circle cx="456.3" cy="564.8" r="3.4"/>
<circle cx="411.9" cy="564.8" r="3.4"/>
<circle cx="323.1" cy="564.8" r="3.4"/>
<circle cx="500.7" cy="564.8" r="3.4"/>
<circle cx="545.1" cy="564.8" r="3.4"/>
<circle cx="589.5" cy="564.8" r="3.4"/>
<circle cx="633.9" cy="564.8" r="3.4"/>
<circle cx="678.3" cy="564.8" r="3.4"/>
<circle cx="722.7" cy="564.8" r="3.4"/>
</g>
<g fill="none" stroke="#fff" stroke-miterlimit="10">
<circle cx="475.7" cy="540.3" r="1.9"/>
<circle cx="539" cy="540.7" r="1.9"/>
<circle cx="324.3" cy="436.7" r="1.9"/>
<circle cx="328" cy="431.6" r="1.9"/>
<circle cx="328" cy="442.1" r="1.9"/>
<circle cx="331.8" cy="436.7" r="1.9"/>
</g>
<path fill="#f9d3bd" d="m419.3,339.5h40.5v112.1h-40.5z"/>
<g fill="#e65525">
<path d="m419.6,395.6h39.8v55.8h-39.8z"/>
<path d="m432.4,453.4h15v2h-15z"/>
</g>
<g fill="none" stroke="#fff" stroke-miterlimit="10">
<circle cx="428" cy="436.7" r="1.9"/>
<circle cx="431.7" cy="442.1" r="1.9"/>
<circle cx="435.4" cy="436.7" r="1.9"/>
<circle cx="271.3" cy="375.5" r="1.9"/>
<circle cx="275" cy="358.6" r="1.9"/>
<circle cx="275" cy="442.1" r="1.9"/>
<circle cx="222" cy="429.5" r="1.9"/>
<circle cx="278.8" cy="436.7" r="1.9"/>
<circle cx="392.5" cy="442.1" r="1.9"/>
<circle cx="396.3" cy="436.7" r="1.9"/>
</g>
<g fill="#fff">
<circle cx="896.9" cy="603.3" r="3.9"/>
<circle cx="922.2" cy="603.3" r="3.9"/>
<circle cx="1008.2" cy="603.3" r="3.9"/>
<path d="m677.8,475.4h49v24.1h-49z"/>
<path d="m826.4,460.8-43.6-13.3-43.7,13.3 0,112.4 87.3,0z"/>
</g>
<g fill="#a7a9ac">
<path d="m780.6,573.6h-31.7v-48.8c0-3.5 2.9-6.4 6.4-6.4h18.9c3.5,0 6.4,2.9 6.4,6.4v48.8z"/>
<path d="m793.8,518.5c2.3,0 4.2,1.9 4.2,4.2v.5c0,2.3-1.9,4.2-4.2,4.2h-17.5c-2.3,0-4.2-1.9-4.2-4.2v-.5c0-2.3 1.9-4.2 4.2-4.2h17.5z"/>
<path d="m803.6,507.7c1.7-1.6 4.3-1.5 5.9,.2l.4,.4c1.6,1.7 1.5,4.3-.2,5.9l-12.8,11.9c-1.7,1.6-4.3,1.5-5.9-.2l-.4-.4c-1.6-1.7-1.5-4.3 .2-5.9l12.8-11.9z"/>
</g>
<path fill="#f9d3bd" d="m786.4,506.5c4.8,5.2 12.9,5.4 18.1,.6 5.2-4.8 5.4-12.9 .6-18.1-2.1-2.3-4.8-3.6-7.7-3.9l-14.4,13.5c.2,2.8 1.3,5.7 3.4,7.9z"/>
<path fill="#e65525" d="m786.4,506.5c5.7,5.2 12.9,5.4 18.1,.6 2.4-2.2 3.7-5.1 4-8.1h-25.3c0,0 .8,5 3.2,7.5z"/>
<g stroke-miterlimit="10">
<g fill="none">
<g stroke="#f9d3bd" stroke-width="3.35">
<path d="m804.5,507.1 9.9,10.5"/>
<path d="m807.3,524.2 14-13.2"/>
</g>
<path stroke="#a7a9ac" d="m782.7,463.7 0-17.5"/>
</g>
<g fill="#fff" stroke="#d1d3d4">
<circle cx="681.2" cy="409.5" r="2"/>
<circle cx="687.9" cy="412.8" r="2"/>
</g>
</g>
<path fill="#a7a9ac" d="m1039,565.8h17.1v32.8h-17.1z"/>
<path fill="#fff" stroke="#a7a9ac" stroke-width="2" d="m1047,598.3c0,6 3.1,14 16.6,14" stroke-miterlimit="10"/>
<circle fill="#e65525" cx="1047.7" cy="572.7" r="3.4"/>
<g fill="#d1d3d4">
<circle cx="1047.7" cy="581.6" r="3.4"/>
<circle cx="1047.7" cy="590.4" r="3.4"/>
</g>
<g fill="#a7a9ac">
<path d="m724.1,308.2-59.1,36 59.1,0z"/>
<path d="m774.2,308.2-59.1,36 59.1,0z"/>
<path d="m824.3,308.2-59.1,36 59.1,0z"/>
</g>
<g fill="#fff">
<path d="m692.9,471.9h18.4v4.7h-18.4z"/>
<path d="m805,375.2h18.4v4.7h-18.4z"/>
<path d="m839,509.7h4.7v18.4h-4.7z"/>
</g>
<g fill="#a7a9ac">
<path d="m920.8,482.3h17.7v4.7h-17.7z"/>
<path d="m883.2,460.3h11v23.7h-11z"/>
</g>
<path fill="none" stroke="#fff" stroke-width="11" d="m840.1,519.2-16.2,0" stroke-miterlimit="10"/>
<g fill="#a7a9ac">
<path d="m899.1,310.2h7.9v37.7h-7.9z" transform="matrix(.7071 -.7071 .7071 .7071 31.8233 734.922)"/>
<path d="m763.9,459.3h37.7v16.7h-37.7z"/>
<path d="m242.3,387.7h186.3v25.4h-186.3z"/>
</g>
<g fill="#fff">
<path d="m316.7,403.8v-7.1h.8v7.1h-.8z"/>
<path d="m323,403.8v-3.5c0-.4-.1-.8-.3-1s-.5-.3-.9-.3c-.6,0-1,.2-1.2,.5s-.4,.8-.4,1.5v2.8h-.8v-5.4h.7l.1,.7c.2-.3 .4-.5 .7-.6 .3-.1 .6-.2 1-.2 .6,0 1.1,.2 1.5,.5 .3,.3 .5,.8 .5,1.5v3.5h-.9z"/>
<path d="m329,402.3c0,.5-.2,.9-.6,1.2s-.9,.4-1.6,.4c-.7,0-1.3-.1-1.7-.3v-.8c.3,.1 .5,.2 .8,.3s.6,.1 .9,.1c.4,0 .7-.1 1-.2 .2-.1 .3-.3 .3-.6 0-.2-.1-.4-.3-.5-.2-.1-.5-.3-1.1-.5-.5-.2-.9-.3-1.1-.5-.2-.1-.4-.3-.5-.5s-.2-.4-.2-.6c0-.4 .2-.8 .5-1 .4-.3 .8-.4 1.5-.4 .6,0 1.1,.1 1.7,.4l-.3,.7c-.5-.2-1-.3-1.5-.3-.4,0-.7,.1-.9,.2s-.3,.3-.3,.5c0,.1 0,.3 .1,.4s.2,.2 .4,.3 .5,.2 .9,.4c.6,.2 1.1,.5 1.3,.7s.7,.3 .7,.6z"/>
<path d="m330.2,397c0-.2 0-.3 .1-.4 .1-.1 .2-.1 .3-.1 .1,0 .2,0 .3,.1s.1,.2 .1,.4 0,.3-.1,.4c-.1,.1-.2,.1-.3,.1-.1,0-.3,0-.3-.1 0-.1-.1-.2-.1-.4zm.9,6.8h-.8v-5.4h.8v5.4z"/>
<path d="m337.2,398.4v.5l-1,.1c.1,.1 .2,.3 .2,.4 .1,.2 .1,.4 .1,.6 0,.5-.2,.9-.5,1.3s-.8,.5-1.5,.5c-.2,0-.3,0-.4,0-.3,.2-.5,.4-.5,.7 0,.1 .1,.3 .2,.3 .1,.1 .3,.1 .6,.1h.9c.6,0 1,.1 1.3,.4s.5,.6 .5,1.1c0,.6-.2,1-.7,1.4-.5,.3-1.2,.5-2.1,.5-.7,0-1.2-.1-1.6-.4s-.6-.6-.6-1.1c0-.3 .1-.6 .3-.8s.5-.4 .9-.5c-.1-.1-.3-.2-.3-.3s-.1-.3-.1-.5c0-.2 .1-.4 .2-.5s.3-.3 .5-.4c-.3-.1-.5-.3-.7-.6s-.3-.6-.3-.9c0-.6 .2-1 .5-1.4 .4-.3 .8-.5 1.5-.5 .3,0 .5,0 .8,.1h1.8zm-4.3,6.2c0,.3 .1,.5 .4,.7s.6,.2 1,.2c.7,0 1.2-.1 1.5-.3 .3-.2 .5-.5 .5-.8 0-.3-.1-.5-.3-.6-.2-.1-.5-.2-1-.2h-1c-.4,0-.7,.1-.9,.3s-.2,.4-.2,.7zm.5-4.6c0,.4 .1,.7 .3,.8s.5,.3 .9,.3c.8,0 1.2-.4 1.2-1.2 0-.8-.4-1.2-1.2-1.2-.4,0-.7,.1-.9,.3s-.3,.6-.3,1z"/>
<path d="m342,403.8v-3.5c0-.4-.1-.8-.3-1s-.5-.3-.9-.3c-.6,0-1,.2-1.2,.5s-.4,.8-.4,1.5v2.8h-.8v-7.6h.8v2.3c0,.3 0,.5 0,.7 .2-.3 .4-.5 .7-.6 .3-.1 .6-.2 1-.2 .7,0 1.1,.2 1.5,.5 .3,.3 .5,.8 .5,1.5v3.5h-.9z"/>
<path d="m346.2,403.2c.1,0 .3,0 .4,0 .1,0 .2,0 .3-.1v.6c-.1,0-.2,.1-.4,.1-.2,0-.3,0-.5,0-1,0-1.6-.5-1.6-1.6v-3.2h-.8v-.4l.8-.3 .3-1.1h.5v1.2h1.6v.6h-1.6v3.1c0,.3 .1,.6 .2,.7s.5,.4 .8,.4z"/>
<path d="m351.4,402.3c0,.5-.2,.9-.6,1.2s-.9,.4-1.6,.4c-.7,0-1.3-.1-1.7-.3v-.8c.3,.1 .5,.2 .8,.3s.6,.1 .9,.1c.4,0 .7-.1 1-.2 .2-.1 .3-.3 .3-.6 0-.2-.1-.4-.3-.5-.2-.1-.5-.3-1.1-.5-.5-.2-.9-.3-1.1-.5-.2-.1-.4-.3-.5-.5s-.2-.4-.2-.6c0-.4 .2-.8 .5-1 .4-.3 .8-.4 1.5-.4 .6,0 1.1,.1 1.7,.4l-.3,.7c-.5-.2-1-.3-1.5-.3-.4,0-.7,.1-.9,.2s-.3,.3-.3,.5c0,.1 0,.3 .1,.4s.2,.2 .4,.3 .5,.2 .9,.4c.6,.2 1.1,.5 1.3,.7s.7,.3 .7,.6z"/>
</g>
<path d="m158.9,282.9v2.9h-1.2v-7.1h2c.9,0 1.6,.2 2,.5s.7,.9 .7,1.6c0,.9-.5,1.5-1.4,1.9l2,3.2h-1.3l-1.7-2.9h-1.1zm0-1.1h.8c.5,0 .9-.1 1.2-.3s.4-.5 .4-.9c0-.4-.1-.7-.4-.9s-.7-.3-1.2-.3h-.8v2.4z"/>
<path d="m166.3,285.8c-.8,0-1.5-.2-2-.7-.5-.5-.7-1.2-.7-2 0-.9 .2-1.6 .7-2.1s1-.8 1.8-.8c.7,0 1.3,.2 1.7,.6s.6,1 .6,1.8v.6h-3.6c0,.5 .2,.9 .4,1.2 .3,.3 .6,.4 1.1,.4 .3,0 .6,0 .9-.1 .3-.1 .6-.2 .9-.3v.9c-.3,.1-.6,.2-.8,.3s-.6,.2-1,.2zm-.2-4.7c-.4,0-.7,.1-.9,.3s-.4,.6-.4,1h2.5c0-.4-.1-.8-.3-1-.2-.2-.5-.3-.9-.3z"/>
<path d="m173.4,284.2c0,.5-.2,.9-.6,1.2-.4,.3-.9,.4-1.7,.4-.7,0-1.3-.1-1.7-.3v-1c.6,.3 1.2,.4 1.8,.4 .7,0 1.1-.2 1.1-.6 0-.1 0-.3-.1-.3s-.2-.2-.4-.3-.4-.2-.7-.3c-.6-.2-1-.5-1.3-.7s-.3-.6-.3-.9c0-.5 .2-.8 .6-1.1 .4-.3 .9-.4 1.5-.4 .6,0 1.2,.1 1.8,.4l-.4,.9c-.6-.2-1.1-.4-1.5-.4-.6,0-.9,.2-.9,.5 0,.2 .1,.3 .2,.4s.5,.3 1,.5c.4,.2 .8,.3 1,.5s.4,.3 .4,.5c.1,.1 .2,.3 .2,.6z"/>
<path d="m177,285.8c-.8,0-1.5-.2-2-.7-.5-.5-.7-1.2-.7-2 0-.9 .2-1.6 .7-2.1s1-.8 1.8-.8c.7,0 1.3,.2 1.7,.6s.6,1 .6,1.8v.6h-3.6c0,.5 .2,.9 .4,1.2 .3,.3 .6,.4 1.1,.4 .3,0 .6,0 .9-.1 .3-.1 .6-.2 .9-.3v.9c-.3,.1-.6,.2-.8,.3s-.7,.2-1,.2zm-.3-4.7c-.4,0-.7,.1-.9,.3s-.4,.6-.4,1h2.5c0-.4-.1-.8-.3-1-.2-.2-.5-.3-.9-.3z"/>
<path d="m183.7,285.7l-.2-.8c-.3,.3-.5,.6-.8,.7-.3,.1-.6,.2-1,.2-.5,0-.9-.1-1.2-.4s-.4-.7-.4-1.2c0-.6 .2-1 .6-1.3s1-.4 1.9-.5h.9v-.3c0-.3-.1-.6-.2-.8-.2-.2-.4-.3-.7-.3-.3,0-.5,0-.8,.1s-.5,.2-.7,.3l-.4-.8c.3-.2 .6-.3 1-.3 .3-.1 .7-.1 1-.1 .7,0 1.2,.1 1.6,.4s.5,.8 .5,1.4v3.6h-1.1zm-1.7-.6c.4,0 .8-.1 1-.3 .3-.2 .4-.6 .4-1v-.5h-.7c-.5,0-.9,.1-1.2,.3-.2,.2-.4,.4-.4,.7 0,.2 .1,.4 .2,.6 .2,.1 .4,.2 .7,.2z"/>
<path d="m188.9,280.2c.2,0 .4,0 .6,0l-.1,1.1c-.2,0-.3-.1-.5-.1-.5,0-.8,.1-1.1,.4s-.4,.7-.4,1.2v2.8h-1.1v-5.4h.9l.2,1h.1c.2-.3 .4-.6 .7-.8s.4-.2 .7-.2z"/>
<path d="m192.6,285.8c-.8,0-1.4-.2-1.9-.7-.4-.5-.6-1.2-.6-2.1 0-.9 .2-1.6 .7-2.1s1.1-.7 1.9-.7c.6,0 1.1,.1 1.5,.3l-.3,.9c-.5-.2-.9-.3-1.2-.3-.9,0-1.4,.6-1.4,1.9 0,.6 .1,1.1 .3,1.4 .2,.3 .6,.5 1,.5 .5,0 1-.1 1.5-.4v1c-.2,.1-.4,.2-.7,.3s-.4,0-.8,0z"/>
<path d="m200.2,285.7h-1.2v-3.3c0-.4-.1-.7-.3-.9s-.4-.3-.8-.3c-.5,0-.8,.1-1.1,.4-.2,.3-.3,.8-.3,1.4v2.7h-1.1v-7.6h1.1v1.9c0,.3 0,.6-.1,1h.1c.2-.3 .4-.5 .7-.6s.6-.2 1-.2c1.3,0 2,.7 2,2v3.5z"/>
<path d="m213.4,588c-.7,0-1.2,.2-1.6,.7s-.6,1.1-.6,2c0,.9 .2,1.5 .6,2s.9,.7 1.6,.7c.3,0 .6,0 .9-.1 .3-.1 .6-.1 .9-.2v1c-.6,.2-1.2,.3-1.9,.3-1,0-1.8-.3-2.4-.9-.6-.6-.8-1.5-.8-2.7 0-.7 .1-1.4 .4-1.9s.7-1 1.2-1.3 1.1-.4 1.8-.4c.7,0 1.4,.2 2,.5l-.4,1c-.2-.1-.5-.2-.8-.3-.3-.4-.6-.4-.9-.4z"/>
<path d="m221.4,591.5c0,.9-.2,1.6-.7,2.1s-1.1,.7-1.9,.7c-.5,0-1-.1-1.3-.3s-.7-.6-.9-1-.3-.9-.3-1.5c0-.9 .2-1.6 .7-2.1s1.1-.7 1.9-.7c.8,0 1.4,.3 1.9,.8 .3,.5 .6,1.2 .6,2zm-4,0c0,1.2 .5,1.9 1.4,1.9 .9,0 1.4-.6 1.4-1.9 0-1.2-.5-1.9-1.4-1.9-.5,0-.8,.2-1,.5s-.4,.8-.4,1.4z"/>
<path d="m227.4,594.2h-1.2v-3.3c0-.4-.1-.7-.3-.9s-.4-.3-.8-.3c-.5,0-.8,.1-1.1,.4s-.3,.8-.3,1.4v2.7h-1.1v-5.4h.9l.2,.7h.1c.2-.3 .4-.5 .7-.6s.6-.2 1-.2c1.3,0 1.9,.7 1.9,2v3.5z"/>
<path d="m231.2,594.3c-.8,0-1.4-.2-1.9-.7-.4-.5-.6-1.2-.6-2.1 0-.9 .2-1.6 .7-2.1s1.1-.7 1.9-.7c.6,0 1.1,.1 1.5,.3l-.3,.9c-.5-.2-.9-.3-1.2-.3-.9,0-1.4,.6-1.4,1.9 0,.6 .1,1.1 .3,1.4 .2,.3 .6,.5 1,.5 .5,0 1-.1 1.5-.4v1c-.2,.1-.4,.2-.7,.3s-.4,0-.8,0z"/>
<path d="m236.4,594.3c-.8,0-1.5-.2-2-.7-.5-.5-.7-1.2-.7-2 0-.9 .2-1.6 .7-2.1s1-.8 1.8-.8c.7,0 1.3,.2 1.7,.6s.6,1 .6,1.8v.6h-3.6c0,.5 .2,.9 .4,1.2 .3,.3 .6,.4 1.1,.4 .3,0 .6,0 .9-.1 .3-.1 .6-.2 .9-.3v.9c-.3,.1-.6,.2-.8,.3s-.7,.2-1,.2zm-.3-4.7c-.4,0-.7,.1-.9,.3s-.4,.6-.4,1h2.5c0-.4-.1-.8-.3-1-.2-.2-.5-.3-.9-.3z"/>
<path d="m242.5,594.3c-.7,0-1.2-.2-1.6-.7h-.1c0,.5 .1,.7 .1,.8v2.2h-1.1v-7.8h.9c0,.1 .1,.3 .2,.7h.1c.4-.5 .9-.8 1.6-.8 .7,0 1.2,.2 1.6,.7s.6,1.2 .6,2.1-.2,1.6-.6,2.1-1,.7-1.7,.7zm-.3-4.6c-.5,0-.8,.1-1,.4s-.3,.7-.3,1.3v.2c0,.7 .1,1.1 .3,1.4 .2,.3 .5,.4 1,.4 .4,0 .7-.2 .9-.5s.3-.8 .3-1.4c0-.6-.1-1.1-.3-1.4-.2-.3-.5-.4-.9-.4z"/>
<path d="m248,593.4c.3,0 .6,0 .8-.1v.9c-.1,.1-.3,.1-.5,.1-.2,0-.4,.1-.6,.1-1.1,0-1.6-.6-1.6-1.7v-2.9h-.7v-.5l.8-.4 .4-1.1h.7v1.2h1.5v.9h-1.5v2.9c0,.3 .1,.5 .2,.6 .1-.1 .3,0 .5,0z"/>
<path d="m255.7,588c-.7,0-1.2,.2-1.6,.7s-.6,1.1-.6,2c0,.9 .2,1.5 .6,2s.9,.7 1.6,.7c.3,0 .6,0 .9-.1 .3-.1 .6-.1 .9-.2v1c-.6,.2-1.2,.3-1.9,.3-1,0-1.8-.3-2.4-.9-.6-.6-.8-1.5-.8-2.7 0-.7 .1-1.4 .4-1.9s.7-1 1.2-1.3 1.1-.4 1.8-.4c.7,0 1.4,.2 2,.5l-.4,1c-.2-.1-.5-.2-.8-.3-.3-.4-.6-.4-.9-.4z"/>
<path d="m261.6,588.7c.2,0 .4,0 .6,0l-.1,1.1c-.2,0-.3-.1-.5-.1-.5,0-.8,.1-1.1,.4s-.4,.7-.4,1.2v2.8h-1.1v-5.4h.9l.2,1h.1c.2-.3 .4-.6 .7-.8s.4-.2 .7-.2z"/>
<path d="m265.5,594.3c-.8,0-1.5-.2-2-.7-.5-.5-.7-1.2-.7-2 0-.9 .2-1.6 .7-2.1s1-.8 1.8-.8c.7,0 1.3,.2 1.7,.6s.6,1 .6,1.8v.6h-3.6c0,.5 .2,.9 .4,1.2 .3,.3 .6,.4 1.1,.4 .3,0 .6,0 .9-.1 .3-.1 .6-.2 .9-.3v.9c-.3,.1-.6,.2-.8,.3s-.6,.2-1,.2zm-.2-4.7c-.4,0-.7,.1-.9,.3s-.4,.6-.4,1h2.5c0-.4-.1-.8-.3-1-.2-.2-.5-.3-.9-.3z"/>
<path d="m272.3,594.2l-.2-.8c-.3,.3-.5,.6-.8,.7-.3,.1-.6,.2-1,.2-.5,0-.9-.1-1.2-.4s-.4-.7-.4-1.2c0-.6 .2-1 .6-1.3s1-.4 1.9-.5h.9v-.3c0-.3-.1-.6-.2-.8-.2-.2-.4-.3-.7-.3-.3,0-.5,0-.8,.1s-.5,.2-.7,.3l-.4-.8c.3-.2 .6-.3 1-.3 .3-.1 .7-.1 1-.1 .7,0 1.2,.1 1.6,.4s.5,.8 .5,1.4v3.6h-1.1zm-1.7-.6c.4,0 .8-.1 1-.3 .3-.2 .4-.6 .4-1v-.5h-.7c-.5,0-.9,.1-1.2,.3-.2,.2-.4,.4-.4,.7 0,.2 .1,.4 .2,.6 .2,.1 .4,.2 .7,.2z"/>
<path d="m276.7,593.4c.3,0 .6,0 .8-.1v.9c-.1,.1-.3,.1-.5,.1-.2,0-.4,.1-.6,.1-1.1,0-1.6-.6-1.6-1.7v-2.9h-.7v-.5l.8-.4 .4-1.1h.7v1.2h1.5v.9h-1.5v2.9c0,.3 .1,.5 .2,.6 .1-.1 .3,0 .5,0z"/>
<path d="m278.6,587.4c0-.2 .1-.4 .2-.5s.3-.2 .5-.2c.2,0 .4,.1 .5,.2s.2,.3 .2,.5c0,.2-.1,.3-.2,.5-.1,.1-.3,.2-.5,.2-.2,0-.4-.1-.5-.2-.2-.1-.2-.3-.2-.5zm1.2,6.8h-1.1v-5.4h1.1v5.4z"/>
<path d="m286.2,591.5c0,.9-.2,1.6-.7,2.1s-1.1,.7-1.9,.7c-.5,0-1-.1-1.3-.3s-.7-.6-.9-1-.3-.9-.3-1.5c0-.9 .2-1.6 .7-2.1s1.1-.7 1.9-.7c.8,0 1.4,.3 1.9,.8 .4,.5 .6,1.2 .6,2zm-3.9,0c0,1.2 .5,1.9 1.4,1.9 .9,0 1.4-.6 1.4-1.9 0-1.2-.5-1.9-1.4-1.9-.5,0-.8,.2-1,.5s-.4,.8-.4,1.4z"/>
<path d="m292.3,594.2h-1.2v-3.3c0-.4-.1-.7-.3-.9s-.4-.3-.8-.3c-.5,0-.8,.1-1.1,.4s-.3,.8-.3,1.4v2.7h-1.1v-5.4h.9l.2,.7h.1c.2-.3 .4-.5 .7-.6s.6-.2 1-.2c1.3,0 1.9,.7 1.9,2v3.5z"/>
<path d="m839.8,203.9c0,1.2-.3,2.1-1,2.7-.7,.6-1.6,.9-2.8,.9h-2v-7.1h2.2c1.1,0 2,.3 2.7,.9 .6,.6 .9,1.5 .9,2.6zm-1.2,0c0-1.7-.8-2.6-2.4-2.6h-1v5.2h.8c1.7,0 2.6-.9 2.6-2.6z"/>
<path d="m843.6,207.6c-.8,0-1.5-.2-2-.7-.5-.5-.7-1.2-.7-2 0-.9 .2-1.6 .7-2.1s1-.8 1.8-.8c.7,0 1.3,.2 1.7,.6 .4,.4 .6,1 .6,1.8v.6h-3.6c0,.5 .2,.9 .4,1.2 .3,.3 .6,.4 1.1,.4 .3,0 .6,0 .9-.1 .3-.1 .6-.2 .9-.3v.9c-.3,.1-.6,.2-.8,.3-.4,.2-.7,.2-1,.2zm-.3-4.7c-.4,0-.7,.1-.9,.3s-.4,.6-.4,1h2.5c0-.4-.1-.8-.3-1-.2-.2-.5-.3-.9-.3z"/>
<path d="m850.6,206c0,.5-.2,.9-.6,1.2-.4,.3-.9,.4-1.7,.4-.7,0-1.3-.1-1.7-.3v-1c.6,.3 1.2,.4 1.8,.4 .7,0 1.1-.2 1.1-.6 0-.1 0-.3-.1-.3s-.2-.2-.4-.3c-.2-.1-.4-.2-.7-.3-.6-.2-1-.5-1.3-.7s-.3-.6-.3-.9c0-.5 .2-.8 .6-1.1 .4-.3 .9-.4 1.5-.4 .6,0 1.2,.1 1.8,.4l-.4,.9c-.6-.2-1.1-.4-1.5-.4-.6,0-.9,.2-.9,.5 0,.2 .1,.3 .2,.4s.5,.3 1,.5c.4,.2 .8,.3 1,.5 .2,.1 .4,.3 .4,.5 .1,.1 .2,.3 .2,.6z"/>
<path d="m851.8,200.7c0-.2 .1-.4 .2-.5s.3-.2 .5-.2c.2,0 .4,.1 .5,.2s.2,.3 .2,.5c0,.2-.1,.3-.2,.5-.1,.1-.3,.2-.5,.2-.2,0-.4-.1-.5-.2-.2-.2-.2-.3-.2-.5zm1.2,6.8h-1.1v-5.4h1.1v5.4z"/>
<path d="m859.2,202.1v.6l-.9,.2c.1,.1 .2,.3 .2,.4 .1,.2 .1,.3 .1,.5 0,.6-.2,1-.6,1.3-.4,.3-.9,.5-1.6,.5-.2,0-.3,0-.5,0-.2,.2-.4,.3-.4,.5 0,.1 .1,.2 .2,.3s.3,.1 .6,.1h.9c.6,0 1,.1 1.4,.4 .3,.3 .5,.6 .5,1.1 0,.6-.3,1.1-.8,1.4-.5,.3-1.2,.5-2.2,.5-.7,0-1.3-.1-1.7-.4-.4-.3-.6-.6-.6-1.1 0-.3 .1-.6 .3-.8 .2-.2 .5-.4 .9-.5-.2-.1-.3-.2-.4-.3-.1-.1-.1-.3-.1-.5 0-.2 .1-.4 .2-.5 .1-.1 .3-.3 .5-.4-.3-.1-.5-.3-.7-.6-.2-.3-.3-.6-.3-1 0-.6 .2-1 .6-1.4s.9-.5 1.6-.5c.2,0 .3,0 .5,0 .2,0 .3,0 .4,.1h1.9zm-4.3,6.3c0,.2 .1,.4 .3,.6s.5,.2 .9,.2c.6,0 1.1-.1 1.4-.3 .3-.2 .5-.4 .5-.7 0-.2-.1-.4-.3-.5-.2-.1-.5-.1-.9-.1h-.8c-.3,0-.6,.1-.8,.2-.2,.2-.3,.4-.3,.6zm.5-4.4c0,.3 .1,.6 .3,.8s.4,.3 .7,.3c.7,0 1-.4 1-1.1 0-.4-.1-.6-.2-.8-.2-.2-.4-.3-.8-.3-.3,0-.6,.1-.8,.3s-.2,.4-.2,.8z"/>
<path d="m864.9,207.5h-1.2v-3.3c0-.4-.1-.7-.3-.9s-.4-.3-.8-.3c-.5,0-.8,.1-1.1,.4s-.3,.8-.3,1.4v2.7h-1.1v-5.4h.9l.2,.7h.1c.2-.3 .4-.5 .7-.6 .3-.1 .6-.2 1-.2 1.3,0 1.9,.7 1.9,2v3.5z"/>
<path d="m869.2,207.5v-7.1h1.2v7.1h-1.2z"/>
<path d="m874.2,206.7c.3,0 .6,0 .8-.1v.9c-.1,.1-.3,.1-.5,.1-.2,0-.4,.1-.6,.1-1.1,0-1.6-.6-1.6-1.7v-3h-.7v-.5l.8-.4 .4-1.1h.7v1.2h1.5v.9h-1.5v2.9c0,.3 .1,.5 .2,.6 .1,0 .3,.1 .5,.1z"/>
<path d="m878.5,207.6c-.8,0-1.5-.2-2-.7-.5-.5-.7-1.2-.7-2 0-.9 .2-1.6 .7-2.1s1-.8 1.8-.8c.7,0 1.3,.2 1.7,.6 .4,.4 .6,1 .6,1.8v.6h-3.6c0,.5 .2,.9 .4,1.2 .3,.3 .6,.4 1.1,.4 .3,0 .6,0 .9-.1 .3-.1 .6-.2 .9-.3v.9c-.3,.1-.6,.2-.8,.3-.3,.2-.7,.2-1,.2zm-.3-4.7c-.4,0-.7,.1-.9,.3s-.4,.6-.4,1h2.5c0-.4-.1-.8-.3-1-.2-.2-.5-.3-.9-.3z"/>
<path d="m884.6,202c.2,0 .4,0 .6,0l-.1,1.1c-.2,0-.3-.1-.5-.1-.5,0-.8,.1-1.1,.4s-.4,.7-.4,1.2v2.8h-1.1v-5.4h.9l.2,1h.1c.2-.3 .4-.6 .7-.8s.4-.2 .7-.2z"/>
<path d="m889.6,207.5l-.2-.8c-.3,.3-.5,.6-.8,.7-.3,.1-.6,.2-1,.2-.5,0-.9-.1-1.2-.4s-.4-.7-.4-1.2c0-.6 .2-1 .6-1.3 .4-.3 1-.4 1.9-.5h.9v-.3c0-.3-.1-.6-.2-.8-.2-.2-.4-.3-.7-.3-.3,0-.5,0-.8,.1s-.5,.2-.7,.3l-.4-.8c.3-.2 .6-.3 1-.3 .3-.1 .7-.1 1-.1 .7,0 1.2,.1 1.6,.4s.5,.8 .5,1.4v3.6h-1.1zm-1.8-.7c.4,0 .8-.1 1-.3 .3-.2 .4-.6 .4-1v-.5h-.7c-.5,0-.9,.1-1.2,.3-.2,.2-.4,.4-.4,.7 0,.2 .1,.4 .2,.6 .2,.2 .5,.2 .7,.2z"/>
<path d="m894,206.7c.3,0 .6,0 .8-.1v.9c-.1,.1-.3,.1-.5,.1-.2,0-.4,.1-.6,.1-1.1,0-1.6-.6-1.6-1.7v-3h-.7v-.5l.8-.4 .4-1.1h.7v1.2h1.5v.9h-1.5v2.9c0,.3 .1,.5 .2,.6 .1,0 .3,.1 .5,.1z"/>
<path d="m895.8,200.7c0-.2 .1-.4 .2-.5s.3-.2 .5-.2c.2,0 .4,.1 .5,.2s.2,.3 .2,.5c0,.2-.1,.3-.2,.5-.1,.1-.3,.2-.5,.2-.2,0-.4-.1-.5-.2-.1-.2-.2-.3-.2-.5zm1.3,6.8h-1.1v-5.4h1.1v5.4z"/>
<path d="m903.5,204.8c0,.9-.2,1.6-.7,2.1-.5,.5-1.1,.7-1.9,.7-.5,0-1-.1-1.3-.3-.4-.2-.7-.6-.9-1-.2-.4-.3-.9-.3-1.5 0-.9 .2-1.6 .7-2.1s1.1-.7 1.9-.7c.8,0 1.4,.3 1.9,.8 .4,.5 .6,1.1 .6,2zm-3.9,0c0,1.2 .5,1.9 1.4,1.9 .9,0 1.4-.6 1.4-1.9 0-1.2-.5-1.9-1.4-1.9-.5,0-.8,.2-1,.5s-.4,.8-.4,1.4z"/>
<path d="m909.6,207.5h-1.2v-3.3c0-.4-.1-.7-.3-.9s-.4-.3-.8-.3c-.5,0-.8,.1-1.1,.4s-.3,.8-.3,1.4v2.7h-1.1v-5.4h.9l.2,.7h.1c.2-.3 .4-.5 .7-.6 .3-.1 .6-.2 1-.2 1.3,0 1.9,.7 1.9,2v3.5z"/>
<path d="m957.6,514.8h2.1c1,0 1.7,.1 2.1,.4 .4,.3 .7,.7 .7,1.4 0,.4-.1,.8-.3,1s-.5,.5-.9,.5c.5,.1 .9,.3 1.1,.6 .2,.3 .4,.7 .4,1.1 0,.6-.2,1.1-.7,1.5-.4,.4-1.1,.5-1.9,.5h-2.6v-7zm1.1,2.9h1.1c.5,0 .8-.1 1.1-.2 .2-.2 .3-.4 .3-.8 0-.3-.1-.6-.4-.7-.2-.1-.6-.2-1.2-.2h-1v1.9zm.1,1v2.3h1.2c.5,0 .9-.1 1.1-.3 .2-.2 .4-.5 .4-.9 0-.4-.1-.6-.4-.8s-.6-.3-1.2-.3h-1.1z"/>
<path d="m967.9,521.9l-.2-.7h-.1c-.2,.3-.4,.4-.7,.6-.3,.1-.6,.2-1,.2-.7,0-1.1-.2-1.5-.5s-.5-.8-.5-1.5v-3.5h1.2v3.3c0,.4 .1,.7 .3,.9 .2,.2 .4,.3 .8,.3 .5,0 .8-.1 1.1-.4 .2-.3 .3-.8 .3-1.4v-2.7h1.2v5.4h-.9z"/>
<path d="m970.3,515.1c0-.2 .1-.4 .2-.5 .1-.1 .3-.2 .5-.2 .2,0 .4,.1 .5,.2 .1,.1 .2,.3 .2,.5 0,.2-.1,.3-.2,.5-.1,.1-.3,.2-.5,.2-.2,0-.4-.1-.5-.2-.1-.2-.2-.3-.2-.5zm1.3,6.8h-1.1v-5.4h1.1v5.4z"/>
<path d="m974.3,521.9h-1.1v-7.6h1.1v7.6z"/>
<path d="m977.8,522c-.7,0-1.2-.2-1.6-.7s-.6-1.2-.6-2.1c0-.9 .2-1.6 .6-2.1 .4-.5 .9-.7 1.6-.7 .7,0 1.2,.3 1.6,.8h.1c-.1-.4-.1-.7-.1-.9v-2h1.2v7.6h-.9l-.2-.7h-.1c-.3,.5-.9,.8-1.6,.8zm.3-.9c.5,0 .8-.1 1-.4 .2-.3 .3-.7 .3-1.3v-.2c0-.7-.1-1.2-.3-1.5s-.6-.4-1-.4c-.4,0-.7,.2-.9,.5-.2,.3-.3,.8-.3,1.4 0,.6 .1,1.1 .3,1.4 .2,.3 .5,.5 .9,.5z"/>
<path d="m984.5,520c0-.4 .1-.8 .3-1.1 .2-.3 .6-.6 1.1-.9-.3-.4-.5-.7-.6-.9-.1-.2-.2-.5-.2-.8 0-.5 .2-.9 .5-1.2 .4-.3 .8-.4 1.4-.4 .6,0 1,.1 1.4,.4 .3,.3 .5,.7 .5,1.1 0,.4-.1,.7-.3,1-.2,.3-.6,.6-1.1,.9l1.7,1.6c.3-.3 .5-.9 .7-1.5h1.2c-.2,.9-.6,1.7-1.1,2.3l1.5,1.4h-1.5l-.7-.7c-.3,.3-.7,.5-1.1,.6-.4,.1-.8,.2-1.2,.2-.7,0-1.3-.2-1.8-.5s-.7-.9-.7-1.5zm2.4,1c.6,0 1.1-.2 1.5-.5l-1.9-1.8c-.3,.2-.6,.4-.7,.6-.1,.2-.2,.4-.2,.7 0,.3 .1,.6 .3,.8 .3,.1 .6,.2 1,.2zm-.7-4.7c0,.2 .1,.4 .2,.6 .1,.2 .3,.4 .5,.6 .4-.2 .6-.4 .8-.6 .1-.2 .2-.4 .2-.6 0-.2-.1-.4-.2-.5-.1-.1-.3-.2-.6-.2-.3,0-.5,.1-.6,.2-.2,.1-.3,.3-.3,.5z"/>
<path d="m999.1,520c0,.6-.2,1.1-.7,1.5s-1.1,.5-1.9,.5-1.5-.1-2-.4v-1.1c.3,.2 .7,.3 1,.4 .4,.1 .7,.1 1,.1 .5,0 .8-.1 1-.3 .2-.2 .3-.4 .3-.7 0-.3-.1-.5-.3-.7s-.6-.4-1.2-.7c-.7-.3-1.1-.6-1.4-.9s-.4-.7-.4-1.2c0-.6 .2-1.1 .6-1.4s1-.5 1.7-.5c.7,0 1.4,.1 2,.4l-.4,1c-.6-.3-1.2-.4-1.7-.4-.4,0-.7,.1-.9,.2-.2,.2-.3,.4-.3,.7 0,.2 0,.3 .1,.5 .1,.1 .2,.3 .4,.4s.5,.3 1,.5c.5,.2 .9,.4 1.2,.6s.4,.4 .5,.6 .4,.5 .4,.9z"/>
<path d="m1005.1,521.9h-1.2v-3.3c0-.4-.1-.7-.3-.9-.2-.2-.4-.3-.8-.3-.5,0-.8,.1-1.1,.4-.2,.3-.3,.8-.3,1.4v2.7h-1.1v-7.6h1.1v1.9c0,.3 0,.6-.1,1h.1c.2-.3 .4-.5 .7-.6 .3-.1 .6-.2 1-.2 1.3,0 2,.7 2,2v3.5z"/>
<path d="m1006.6,515.1c0-.2 .1-.4 .2-.5 .1-.1 .3-.2 .5-.2 .2,0 .4,.1 .5,.2 .1,.1 .2,.3 .2,.5 0,.2-.1,.3-.2,.5-.1,.1-.3,.2-.5,.2-.2,0-.4-.1-.5-.2-.2-.2-.2-.3-.2-.5zm1.2,6.8h-1.1v-5.4h1.1v5.4z"/>
<path d="m1012.2,522c-.7,0-1.2-.2-1.6-.7h-.1c0,.5 .1,.7 .1,.8v2.2h-1.1v-7.8h.9c0,.1 .1,.3 .2,.7h.1c.4-.5 .9-.8 1.6-.8 .7,0 1.2,.2 1.6,.7 .4,.5 .6,1.2 .6,2.1s-.2,1.6-.6,2.1c-.5,.4-1,.7-1.7,.7zm-.3-4.7c-.5,0-.8,.1-1,.4-.2,.3-.3,.7-.3,1.3v.2c0,.7 .1,1.1 .3,1.4 .2,.3 .5,.4 1,.4 .4,0 .7-.2 .9-.5s.3-.8 .3-1.4c0-.6-.1-1.1-.3-1.4-.2-.2-.5-.4-.9-.4z"/>
<path d="m1072.8,468l-2.1-6c.1,.9 .1,1.7 .1,2.5v3.5h-1.1v-7.1h1.6l2,5.7 2-5.7h1.7v7.1h-1.1v-3.5c0-.4 0-.8 0-1.4s0-.9 0-1l-2.1,6h-1z"/>
<path d="m1081.2,468.1c-.8,0-1.5-.2-2-.7-.5-.5-.7-1.2-.7-2 0-.9 .2-1.6 .7-2.1s1-.8 1.8-.8c.7,0 1.3,.2 1.7,.6 .4,.4 .6,1 .6,1.8v.6h-3.6c0,.5 .2,.9 .4,1.2 .3,.3 .6,.4 1.1,.4 .3,0 .6,0 .9-.1 .3-.1 .6-.2 .9-.3v.9c-.3,.1-.6,.2-.8,.3-.3,.2-.6,.2-1,.2zm-.2-4.7c-.4,0-.7,.1-.9,.3s-.4,.6-.4,1h2.5c0-.4-.1-.8-.3-1-.3-.2-.5-.3-.9-.3z"/>
<path d="m1088,468l-.2-.8c-.3,.3-.5,.6-.8,.7-.3,.1-.6,.2-1,.2-.5,0-.9-.1-1.2-.4s-.4-.7-.4-1.2c0-.6 .2-1 .6-1.3 .4-.3 1-.4 1.9-.5h.9v-.3c0-.3-.1-.6-.2-.8-.2-.2-.4-.3-.8-.3-.3,0-.5,0-.8,.1s-.5,.2-.7,.3l-.4-.8c.3-.2 .6-.3 1-.3 .3-.1 .7-.1 1-.1 .7,0 1.2,.1 1.6,.4s.5,.8 .5,1.4v3.6h-1zm-1.7-.6c.4,0 .8-.1 1-.3 .3-.2 .4-.6 .4-1v-.5h-.7c-.5,0-.9,.1-1.2,.3-.2,.2-.4,.4-.4,.7 0,.2 .1,.4 .2,.6 .2,.1 .4,.2 .7,.2z"/>
<path d="m1094,466.5c0,.5-.2,.9-.6,1.2-.4,.3-.9,.4-1.7,.4-.7,0-1.3-.1-1.7-.3v-1c.6,.3 1.2,.4 1.8,.4 .7,0 1.1-.2 1.1-.6 0-.1 0-.3-.1-.3s-.2-.2-.4-.3c-.2-.1-.4-.2-.7-.3-.6-.2-1-.5-1.3-.7s-.3-.6-.3-.9c0-.5 .2-.8 .6-1.1 .4-.3 .9-.4 1.5-.4 .6,0 1.2,.1 1.8,.4l-.4,.9c-.6-.2-1.1-.4-1.5-.4-.6,0-.9,.2-.9,.5 0,.2 .1,.3 .2,.4s.5,.3 1,.5c.4,.2 .8,.3 1,.5 .2,.1 .4,.3 .4,.5 .2,.1 .2,.3 .2,.6z"/>
<path d="m1099.1,468l-.2-.7h-.1c-.2,.3-.4,.4-.7,.6s-.6,.2-1,.2c-.7,0-1.1-.2-1.5-.5s-.5-.8-.5-1.5v-3.5h1.2v3.3c0,.4 .1,.7 .3,.9 .2,.2 .4,.3 .8,.3 .5,0 .8-.1 1.1-.4 .2-.3 .3-.8 .3-1.4v-2.7h1.2v5.4h-.9z"/>
<path d="m1104.4,462.6c.2,0 .4,0 .6,0l-.1,1.1c-.2,0-.3-.1-.5-.1-.5,0-.8,.1-1.1,.4s-.4,.7-.4,1.2v2.8h-1.1v-5.4h.9l.2,1h.1c.2-.3 .4-.6 .7-.8s.3-.2 .7-.2z"/>
<path d="m1108.3,468.1c-.8,0-1.5-.2-2-.7-.5-.5-.7-1.2-.7-2 0-.9 .2-1.6 .7-2.1s1-.8 1.8-.8c.7,0 1.3,.2 1.7,.6 .4,.4 .6,1 .6,1.8v.6h-3.6c0,.5 .2,.9 .4,1.2 .3,.3 .6,.4 1.1,.4 .3,0 .6,0 .9-.1 .3-.1 .6-.2 .9-.3v.9c-.3,.1-.6,.2-.8,.3-.3,.2-.6,.2-1,.2zm-.2-4.7c-.4,0-.7,.1-.9,.3s-.4,.6-.4,1h2.5c0-.4-.1-.8-.3-1-.3-.2-.6-.3-.9-.3z"/>
<g fill="#e65525">
<circle cx="118.2" cy="424.2" r="6.5"/>
<circle cx="519.4" cy="159.1" r="6.5"/>
</g>
<circle fill="#f18b21" cx="196.3" cy="101.5" r="6.5"/>
<g fill="#ffce02">
<circle cx="281.3" cy="255.7" r="6.5"/>
<circle cx="358.5" cy="206.7" r="6.5"/>
</g>
<circle fill="#414042" cx="870" cy="225.9" r="11.8"/>
<path fill="#fff" d="m872.7,224c0,.4-.1,.8-.4,1.1-.3,.3-.6,.5-1.1,.6 .6,.1 1,.2 1.3,.5 .3,.3 .4,.7 .4,1.1 0,.7-.2,1.2-.7,1.6-.5,.4-1.2,.6-2.1,.6-.8,0-1.5-.1-2.1-.4v-1.1c.3,.1 .6,.3 .9,.3s.7,.1 1,.1c.5,0 .9-.1 1.1-.3 .2-.2 .4-.4 .4-.8 0-.3-.1-.6-.4-.7s-.7-.2-1.3-.2h-.5v-1.2h.6c.6,0 1-.1 1.2-.2 .3-.1 .4-.4 .4-.7 0-.5-.3-.8-1-.8-.2,0-.5,0-.7,.1s-.5,.2-.8,.4l-.7-1c.7-.5 1.4-.7 2.3-.7 .7,0 1.3,.1 1.8,.4s.4,.8 .4,1.3z"/>
<circle fill="#414042" cx="983.8" cy="539" r="11.8"/>
<path fill="#fff" d="m986,540.8h-.9v1.5h-1.5v-1.5h-3v-1l3.1-4.6h1.4v4.5h.9v1.1zm-2.4-1.2v-1.2c0-.2 0-.5 0-.9 0-.4 0-.6 0-.7-.1,.3-.3,.5-.4,.8l-1.3,2h1.7z"/>
<circle fill="#414042" cx="1089.2" cy="484.3" r="11.8"/>
<path fill="#fff" d="m1088.8,483.4c.7,0 1.2,.2 1.6,.6s.6,.9 .6,1.6c0,.8-.2,1.4-.7,1.8-.5,.4-1.2,.6-2.1,.6-.8,0-1.4-.1-1.9-.4v-1.3c.3,.1 .6,.2 .9,.3 .3,.1 .7,.1 1,.1 .9,0 1.4-.4 1.4-1.1 0-.7-.5-1.1-1.4-1.1-.2,0-.4,0-.6,.1-.2,0-.4,.1-.5,.1l-.6-.3 .3-3.6h3.9v1.3h-2.5l-.1,1.4h.2c-.1-.1 .2-.1 .5-.1z"/>
<circle fill="#414042" cx="251.5" cy="564.5" r="11.8"/>
<path fill="#fff" d="m254.2,568h-5v-1l1.8-1.8c.5-.5 .9-.9 1-1.1 .2-.2 .3-.4 .4-.6s.1-.4 .1-.6c0-.3-.1-.5-.2-.6s-.4-.2-.6-.2c-.3,0-.5,.1-.8,.2s-.5,.3-.8,.5l-.8-1c.4-.3 .6-.5 .9-.6s.5-.2 .8-.3c.3-.1 .6-.1 .9-.1 .4,0 .8,.1 1.2,.2s.6,.4 .8,.7 .3,.6 .3,1c0,.3-.1,.6-.2,.9-.1,.3-.3,.6-.5,.9s-.7,.7-1.3,1.3l-.9,.9v.1h3.1v1.2z"/>
<g fill="none" stroke-miterlimit="10">
<g stroke="#e65525">
<path d="m438.9,339.1 0-1.5"/>
<path stroke-dasharray="2.9786,2.9786" d="M438.9,334.6V169.1c0-5.5,4.5-10,10-10h67.5"/>
<path d="m517.9,159.1 1.5,0"/>
<path d="m231.4,339.1 0-1.5"/>
<path stroke-dasharray="3.009,3.009" d="m231.4,334.6v-19.8c0-5.5-4.5-10-10-10h-94.6c-5.5,0-10,4.5-10,10v105.5"/>
<path d="m116.8,421.8 0,1.5"/>
</g>
<g stroke="#ffce02">
<path d="m386.6,339.1 0-1.5"/>
<path stroke-dasharray="3.0376,3.0376" d="m386.6,334.6v-35.2c0-5.5-4.5-10-10-10h-8.1c-5.5,0-10-4.5-10-10v-69.6"/>
<path d="m358.5,208.2 0-1.5"/>
<path d="m281.3,339.1 0-1.5"/>
<path stroke-dasharray="2.9786,2.9786" d="m281.3,334.6 0-75.9"/>
<path d="m281.3,257.2 0-1.5"/>
</g>
<g stroke="#f18b21">
<path d="m336.6,339.1 0-1.5"/>
<path stroke-dasharray="2.9785,2.9785" d="M336.6,334.6V138c0-5.5-4.5-10-10-10H206.3c-5.5,0-10-4.5-10-10v-13.5"/>
<path d="m196.3,103 0-1.5"/>
</g>
</g>
<circle fill="#414042" cx="177.4" cy="304.6" r="11.8"/>
<path fill="#fff" d="m178.5,308.3h-1.5v-4.1-.7-.7c-.3,.3-.4,.4-.5,.5l-.8,.7-.7-1 2.3-1.8h1.2v7.1z"/>
<g fill="#a7a9ac">
<path d="m1086,615-230,0-10,12 250,0z"/>
<circle cx="765.8" cy="498.4" r="15.6"/>
</g>
<circle fill="#fff" cx="773.3" cy="492.3" r="2.3"/>
<path fill="#f18b21" d="m791,404h79.5v27h-79.5z"/>
<g fill="none" stroke="#ed1c24" stroke-miterlimit="10">
<path d="m704,487.8c-1.9-1.9-1.9-5 0-6.9"/>
<path d="m704,487.9c1.9,1.9 1.9,5 0,6.9"/>
<path d="m708.7,487.8c-1.9-1.9-1.9-5 0-6.9"/>
<path d="m708.7,487.9c1.9,1.9 1.9,5 0,6.9"/>
<path d="m713.4,487.8c-1.9-1.9-1.9-5 0-6.9"/>
<path d="m713.4,487.9c1.9,1.9 1.9,5 0,6.9"/>
<path d="m690.1,487.8c-1.9-1.9-1.9-5 0-6.9"/>
<path d="m690.1,487.9c1.9,1.9 1.9,5 0,6.9"/>
<path d="m694.8,487.8c-1.9-1.9-1.9-5 0-6.9"/>
<path d="m694.8,487.9c1.9,1.9 1.9,5 0,6.9"/>
<path d="m699.5,487.8c-1.9-1.9-1.9-5 0-6.9"/>
<path d="m699.5,487.9c1.9,1.9 1.9,5 0,6.9"/>
</g>
<g fill="#fff">
<path d="m812.2,414.7c0,.7-.2,1.3-.7,1.7-.5,.4-1.2,.6-2.1,.6h-.8v2.8h-.8v-7.1h1.9c1.7-.1 2.5,.6 2.5,2zm-3.6,1.5h.7c.7,0 1.3-.1 1.6-.4s.5-.6 .5-1.1c0-.5-.2-.8-.5-1.1s-.8-.3-1.4-.3h-.9v2.9z"/>
<path d="m816.1,414.3c.2,0 .5,0 .6,.1l-.1,.8c-.2,0-.4-.1-.6-.1-.4,0-.8,.2-1.1,.5-.3,.4-.5,.8-.5,1.3v2.9h-.8v-5.4h.7l.1,1c.2-.3 .4-.6 .7-.8s.6-.3 1-.3z"/>
<path d="m822.3,417.1c0,.9-.2,1.6-.7,2-.4,.5-1,.7-1.8,.7-.5,0-.9-.1-1.3-.3s-.7-.5-.9-1-.3-.9-.3-1.5c0-.9 .2-1.6 .7-2 .4-.5 1-.7 1.8-.7 .7,0 1.3,.2 1.8,.7 .5,.5 .7,1.2 .7,2.1zm-4.1,0c0,.7 .1,1.2 .4,1.6s.7,.5 1.2,.5 .9-.2 1.2-.5c.3-.4 .4-.9 .4-1.6 0-.7-.1-1.2-.4-1.5-.3-.4-.7-.5-1.2-.5-.5,0-.9,.2-1.2,.5s-.4,.8-.4,1.5z"/>
<path d="m825.5,419.2c.1,0 .3,0 .4,0 .1,0 .2,0 .3-.1v.6c-.1,0-.2,.1-.4,.1-.2,0-.3,0-.5,0-1,0-1.6-.5-1.6-1.6v-3.2h-.7v-.4l.8-.3 .3-1.1h.5v1.2h1.6v.6h-1.6v3.1c0,.3 .1,.6 .2,.7s.4,.4 .7,.4z"/>
<path d="m831.9,417.1c0,.9-.2,1.6-.7,2-.4,.5-1,.7-1.8,.7-.5,0-.9-.1-1.3-.3s-.7-.5-.9-1-.3-.9-.3-1.5c0-.9 .2-1.6 .7-2 .4-.5 1-.7 1.8-.7 .7,0 1.3,.2 1.8,.7 .5,.5 .7,1.2 .7,2.1zm-4.1,0c0,.7 .1,1.2 .4,1.6s.7,.5 1.2,.5 .9-.2 1.2-.5c.3-.4 .4-.9 .4-1.6 0-.7-.1-1.2-.4-1.5-.3-.4-.7-.5-1.2-.5-.5,0-.9,.2-1.2,.5s-.4,.8-.4,1.5z"/>
<path d="m835,419.2c.1,0 .3,0 .4,0 .1,0 .2,0 .3-.1v.6c-.1,0-.2,.1-.4,.1-.2,0-.3,0-.5,0-1,0-1.6-.5-1.6-1.6v-3.2h-.8v-.4l.8-.3 .3-1.1h.5v1.2h1.6v.6h-1.6v3.1c0,.3 .1,.6 .2,.7s.6,.4 .8,.4z"/>
<path d="m836,414.4h.9l1.2,3.1c.3,.7 .4,1.2 .5,1.5 0-.2 .1-.5 .3-.9 .1-.4 .6-1.6 1.3-3.7h.9l-2.3,6.1c-.2,.6-.5,1-.8,1.3-.3,.3-.7,.4-1.1,.4-.2,0-.5,0-.7-.1v-.6c.2,0 .4,.1 .6,.1 .6,0 1-.3 1.2-.9l.3-.8-2.3-5.5z"/>
<path d="m844.4,419.8c-.3,0-.7-.1-1-.2-.3-.1-.5-.3-.7-.6h-.1c0,.3 .1,.6 .1,.9v2.2h-.8v-7.8h.7l.1,.7c.2-.3 .5-.5 .7-.6s.6-.2 1-.2c.7,0 1.3,.2 1.6,.7 .4,.5 .6,1.2 .6,2 0,.9-.2,1.6-.6,2-.4,.7-.9,.9-1.6,.9zm-.1-4.8c-.5,0-.9,.2-1.2,.5s-.4,.8-.4,1.4v.2c0,.8 .1,1.3 .4,1.6 .2,.3 .7,.5 1.2,.5 .5,0 .8-.2 1.1-.6 .3-.4 .4-.9 .4-1.5 0-.7-.1-1.2-.4-1.5-.3-.4-.7-.6-1.1-.6z"/>
<path d="m850.3,419.8c-.8,0-1.4-.2-1.9-.7-.5-.5-.7-1.2-.7-2 0-.9 .2-1.5 .6-2.1 .4-.5 1-.8 1.7-.8 .7,0 1.2,.2 1.6,.7 .4,.4 .6,1 .6,1.7v.5h-3.7c0,.6 .2,1.1 .5,1.4 .3,.3 .7,.5 1.3,.5 .6,0 1.1-.1 1.7-.4v.7c-.3,.1-.6,.2-.8,.3-.3,.2-.6,.2-.9,.2zm-.2-4.8c-.4,0-.8,.1-1,.4-.3,.3-.4,.7-.5,1.2h2.8c0-.5-.1-.9-.3-1.2-.3-.3-.6-.4-1-.4z"/>
<path d="m775.4,471.3h-.8v-6.4h-2.3v-.7h5.4v.7h-2.3v6.4z"/>
<path d="m780.8,471.4c-.8,0-1.4-.2-1.9-.7-.5-.5-.7-1.2-.7-2 0-.9 .2-1.5 .6-2.1 .4-.5 1-.8 1.7-.8 .7,0 1.2,.2 1.6,.7 .4,.4 .6,1 .6,1.7v.5h-3.7c0,.6 .2,1.1 .5,1.4 .3,.3 .7,.5 1.3,.5 .6,0 1.1-.1 1.7-.4v.7c-.3,.1-.6,.2-.8,.3-.2,.2-.5,.2-.9,.2zm-.2-4.9c-.4,0-.8,.1-1,.4-.3,.3-.4,.7-.5,1.2h2.8c0-.5-.1-.9-.3-1.2-.2-.2-.6-.4-1-.4z"/>
<path d="m787.6,469.8c0,.5-.2,.9-.6,1.2s-.9,.4-1.6,.4c-.7,0-1.3-.1-1.7-.3v-.8c.3,.1 .5,.2 .8,.3 .3,.1 .6,.1 .9,.1 .4,0 .7-.1 1-.2 .2-.1 .3-.3 .3-.6 0-.2-.1-.4-.3-.5-.2-.1-.5-.3-1.1-.5-.5-.2-.9-.3-1.1-.5-.2-.1-.4-.3-.5-.5-.1-.2-.2-.4-.2-.6 0-.4 .2-.8 .5-1 .4-.3 .8-.4 1.5-.4 .6,0 1.1,.1 1.7,.4l-.3,.7c-.5-.2-1-.3-1.5-.3-.4,0-.7,.1-.9,.2s-.3,.3-.3,.5c0,.1 0,.3 .1,.4 .1,.1 .2,.2 .4,.3s.5,.2 .9,.4c.6,.2 1.1,.5 1.3,.7 .6,0 .7,.3 .7,.6z"/>
<path d="m790.7,470.7c.1,0 .3,0 .4,0 .1,0 .2,0 .3-.1v.6c-.1,0-.2,.1-.4,.1-.2,0-.3,0-.5,0-1,0-1.6-.5-1.6-1.6v-3.2h-.8v-.4l.8-.3 .3-1.1h.5v1.2h1.6v.6h-1.6v3.1c0,.3 .1,.6 .2,.7s.5,.4 .8,.4z"/>
</g>
<g fill="#808285">
<path d="m712.4,429v3h-.8v-7.1h2c.9,0 1.5,.2 1.9,.5 .4,.3 .6,.8 .6,1.5 0,.9-.5,1.6-1.4,1.9l1.9,3.2h-1l-1.7-3h-1.5zm0-.7h1.1c.6,0 1-.1 1.3-.3 .3-.2 .4-.6 .4-1 0-.5-.1-.8-.4-1-.3-.2-.7-.3-1.3-.3h-1.1v2.6z"/>
<path d="m719.9,432.1c-.8,0-1.4-.2-1.9-.7-.5-.5-.7-1.2-.7-2 0-.9 .2-1.5 .6-2.1 .4-.5 1-.8 1.7-.8 .7,0 1.2,.2 1.6,.7 .4,.4 .6,1 .6,1.7v.5h-3.7c0,.6 .2,1.1 .5,1.4 .3,.3 .7,.5 1.3,.5 .6,0 1.1-.1 1.7-.4v.7c-.3,.1-.6,.2-.8,.3-.2,.1-.5,.2-.9,.2zm-.2-4.9c-.4,0-.8,.1-1,.4-.3,.3-.4,.7-.5,1.2h2.8c0-.5-.1-.9-.3-1.2-.2-.3-.6-.4-1-.4z"/>
<path d="m725.7,427.2h-1.4v4.7h-.8v-4.7h-1v-.4l1-.3v-.3c0-1.3 .6-2 1.7-2 .3,0 .6,.1 1,.2l-.2,.6c-.3-.1-.6-.2-.8-.2-.3,0-.5,.1-.7,.3-.1,.2-.2,.5-.2,1v.3h1.4v.8zm.9-2c0-.2 0-.3 .1-.4 .1-.1 .2-.1 .3-.1 .1,0 .2,0 .3,.1s.1,.2 .1,.4 0,.3-.1,.4c-.1,.1-.2,.1-.3,.1-.1,0-.2,0-.3-.1-.1-.1-.1-.3-.1-.4zm.9,6.8h-.8v-5.4h.8v5.4z"/>
<path d="m732.9,432v-3.5c0-.4-.1-.8-.3-1s-.5-.3-.9-.3c-.6,0-1,.2-1.2,.5s-.4,.8-.4,1.5v2.8h-.8v-5.4h.7l.1,.7c.2-.3 .4-.5 .7-.6 .3-.1 .6-.2 1-.2 .6,0 1.1,.2 1.5,.5 .3,.3 .5,.8 .5,1.5v3.5h-.9z"/>
<path d="m737.6,432.1c-.8,0-1.4-.2-1.9-.7-.5-.5-.7-1.2-.7-2 0-.9 .2-1.5 .6-2.1 .4-.5 1-.8 1.7-.8 .7,0 1.2,.2 1.6,.7 .4,.4 .6,1 .6,1.7v.5h-3.7c0,.6 .2,1.1 .5,1.4 .3,.3 .7,.5 1.3,.5 .6,0 1.1-.1 1.7-.4v.7c-.3,.1-.6,.2-.8,.3-.2,.1-.5,.2-.9,.2zm-.2-4.9c-.4,0-.8,.1-1,.4-.3,.3-.4,.7-.5,1.2h2.8c0-.5-.1-.9-.3-1.2-.3-.3-.6-.4-1-.4z"/>
<path d="m410.6,488.5c-.8,0-1.4,.3-1.9,.8-.5,.5-.7,1.2-.7,2.1 0,.9 .2,1.7 .7,2.2 .4,.5 1.1,.8 1.9,.8 .5,0 1.1-.1 1.7-.3v.7c-.5,.2-1.1,.3-1.8,.3-1.1,0-1.9-.3-2.4-1s-.9-1.5-.9-2.7c0-.7 .1-1.4 .4-1.9s.7-1 1.2-1.3 1.1-.4 1.8-.4c.7,0 1.4,.1 2,.4l-.4,.7c-.5-.2-1.1-.4-1.6-.4z"/>
<path d="m418.4,492.4c0,.9-.2,1.6-.7,2-.4,.5-1,.7-1.8,.7-.5,0-.9-.1-1.3-.3s-.7-.5-.9-1-.3-.9-.3-1.5c0-.9 .2-1.6 .7-2 .4-.5 1-.7 1.8-.7 .7,0 1.3,.2 1.8,.7s.7,1.2 .7,2.1zm-4.1,0c0,.7 .1,1.2 .4,1.6s.7,.5 1.2,.5 .9-.2 1.2-.5c.3-.4 .4-.9 .4-1.6 0-.7-.1-1.2-.4-1.5-.3-.4-.7-.5-1.2-.5-.5,0-.9,.2-1.2,.5s-.4,.8-.4,1.5z"/>
<path d="m423.4,495v-3.5c0-.4-.1-.8-.3-1s-.5-.3-.9-.3c-.6,0-1,.2-1.2,.5s-.4,.8-.4,1.5v2.8h-.8v-5.4h.7l.1,.7c.2-.3 .4-.5 .7-.6 .3-.1 .6-.2 1-.2 .6,0 1.1,.2 1.5,.5 .3,.3 .5,.8 .5,1.5v3.5h-.9z"/>
<path d="m428.1,495.1c-.8,0-1.4-.2-1.8-.7-.4-.5-.6-1.2-.6-2 0-.9 .2-1.6 .6-2.1s1-.7 1.8-.7c.3,0 .5,0 .8,.1s.5,.1 .6,.2l-.2,.7c-.2-.1-.4-.1-.6-.2-.2,0-.4-.1-.6-.1-1.1,0-1.6,.7-1.6,2.1 0,.7 .1,1.2 .4,1.5s.7,.5 1.2,.5c.4,0 .9-.1 1.4-.3v.7c-.5,.2-.9,.3-1.4,.3z"/>
<path d="m432.9,495.1c-.8,0-1.4-.2-1.9-.7s-.7-1.2-.7-2c0-.9 .2-1.5 .6-2.1s1-.8 1.7-.8c.7,0 1.2,.2 1.6,.7 .4,.4 .6,1 .6,1.7v.5h-3.7c0,.6 .2,1.1 .5,1.4s.7,.5 1.3,.5c.6,0 1.1-.1 1.7-.4v.7c-.3,.1-.6,.2-.8,.3-.2,.2-.5,.2-.9,.2zm-.2-4.8c-.4,0-.8,.1-1,.4s-.4,.7-.5,1.2h2.8c0-.5-.1-.9-.3-1.2-.2-.3-.6-.4-1-.4z"/>
<path d="m438.8,495.1c-.3,0-.7-.1-1-.2-.3-.1-.5-.3-.7-.6h-.1c0,.3 .1,.6 .1,.9v2.2h-.8v-7.8h.7l.1,.7c.2-.3 .5-.5 .7-.6s.6-.2 1-.2c.7,0 1.3,.2 1.6,.7s.6,1.2 .6,2c0,.9-.2,1.6-.6,2-.4,.7-.9,.9-1.6,.9zm-.1-4.8c-.5,0-.9,.2-1.2,.5s-.4,.8-.4,1.4v.2c0,.8 .1,1.3 .4,1.6 .3,.3 .7,.5 1.2,.5 .5,0 .8-.2 1.1-.6s.4-.9 .4-1.5c0-.7-.1-1.2-.4-1.5-.3-.4-.7-.6-1.1-.6z"/>
<path d="m444.1,494.5c.1,0 .3,0 .4,0 .1,0 .2,0 .3-.1v.6c-.1,0-.2,.1-.4,.1-.2,0-.3,0-.5,0-1,0-1.6-.5-1.6-1.6v-3.2h-.8v-.4l.8-.3 .3-1.1h.5v1.2h1.6v.6h-1.6v3.1c0,.3 .1,.6 .2,.7s.6,.4 .8,.4z"/>
<path d="m449.4,493.6c0,.5-.2,.9-.6,1.2s-.9,.4-1.6,.4c-.7,0-1.3-.1-1.7-.3v-.8c.3,.1 .5,.2 .8,.3s.6,.1 .9,.1c.4,0 .7-.1 1-.2 .2-.1 .3-.3 .3-.6 0-.2-.1-.4-.3-.5-.2-.1-.5-.3-1.1-.5-.5-.2-.9-.3-1.1-.5-.2-.1-.4-.3-.5-.5s-.2-.4-.2-.6c0-.4 .2-.8 .5-1 .4-.3 .8-.4 1.5-.4 .6,0 1.1,.1 1.7,.4l-.3,.7c-.5-.2-1-.3-1.5-.3-.4,0-.7,.1-.9,.2s-.3,.3-.3,.5c0,.1 0,.3 .1,.4s.2,.2 .4,.3 .5,.2 .9,.4c.6,.2 1.1,.5 1.3,.7s.7,.2 .7,.6z"/>
</g>
<g fill="none" stroke="#a7a9ac" stroke-width=".5" stroke-miterlimit="10">
<path d="m454.3,492.1 12.3,0 0,8.9"/>
<path d="m401.9,492.1-13.2,0 0,8.9"/>
</g>
</svg>
